<?xml version="1.0" standalone="no"?>
<!DOCTYPE svg PUBLIC "-//W3C//DTD SVG 20010904//EN"
 "http://www.w3.org/TR/2001/REC-SVG-20010904/DTD/svg10.dtd">
<svg version="1.0" xmlns="http://www.w3.org/2000/svg"
 width="512.000000pt" height="512.000000pt" viewBox="0 0 512.000000 512.000000"
 preserveAspectRatio="xMidYMid meet">
<metadata>
Created by potrace 1.14, written by Peter Selinger 2001-2017
</metadata>
<g transform="translate(0.000000,512.000000) scale(0.100000,-0.100000)"
fill="#000000" stroke="none">
<path d="M141 5098 c-5 -13 -5 -24 -1 -26 12 -5 50 30 44 40 -10 16 -35 8 -43
-14z"/>
<path d="M610 5105 c0 -7 -6 -18 -13 -22 -19 -11 -27 -49 -17 -82 4 -16 4 -48
0 -72 -5 -26 -5 -48 1 -53 5 -6 9 -22 9 -38 0 -15 8 -31 18 -37 16 -10 16 -10
0 -11 -21 0 -23 -11 -6 -28 9 -9 9 -15 1 -23 -7 -7 -8 -24 -1 -52 13 -57 14
-185 1 -198 -7 -7 -13 10 -19 53 -4 35 -7 71 -6 81 1 9 -3 17 -8 17 -6 0 -10
12 -11 28 l-1 27 -12 -27 c-6 -15 -22 -38 -35 -52 -20 -21 -23 -34 -22 -88 1
-35 4 -80 6 -100 2 -21 0 -38 -3 -38 -4 0 -8 -41 -9 -90 -2 -89 -2 -90 23 -90
19 0 24 -5 24 -25 0 -32 21 -76 34 -72 6 2 16 -5 23 -17 10 -19 12 -17 24 24
7 26 14 38 16 28 7 -27 33 -9 33 22 0 15 -6 33 -14 39 -8 7 -12 20 -9 30 3 10
0 22 -6 25 -6 4 -11 16 -11 27 0 14 4 18 13 13 8 -5 7 -2 -2 10 -11 13 -11 20
-3 28 9 9 12 8 12 -5 0 -9 5 -17 10 -17 6 0 10 4 10 9 0 6 -4 13 -10 16 -5 3
-10 18 -10 33 -1 25 -2 26 -14 9 -19 -25 -30 -5 -20 36 4 17 7 38 5 44 -1 8 4
10 14 7 12 -5 15 1 15 28 0 19 3 38 7 41 3 4 8 23 10 43 2 21 8 44 12 53 5 9
7 40 6 69 -2 31 1 52 7 52 7 0 6 5 -1 14 -10 11 -12 34 -11 126 0 29 40 73 47
53 3 -7 11 -13 19 -13 8 0 14 -10 14 -24 0 -37 21 -86 36 -86 14 0 16 12 18
110 1 31 5 36 38 47 38 13 68 9 68 -9 0 -5 7 -16 15 -24 13 -13 16 -12 26 4 7
11 19 17 30 15 14 -4 17 -13 13 -54 -3 -30 -1 -49 6 -49 5 0 10 7 10 15 0 7 6
18 13 22 7 4 23 22 36 38 12 17 27 31 32 31 5 1 13 2 18 3 5 0 7 19 4 41 -4
27 -2 40 6 40 8 0 10 8 6 20 -4 11 -2 20 4 20 6 0 11 5 11 10 0 6 -95 10 -265
10 -225 0 -265 -2 -265 -15z"/>
<path d="M43 5070 c-34 -29 -43 -45 -43 -70 0 -39 17 -36 45 8 11 17 27 31 36
32 9 0 21 11 27 25 16 34 15 40 -2 26 -11 -9 -15 -9 -18 3 -2 10 -15 3 -45
-24z"/>
<path d="M3880 4962 c-14 -20 -31 -48 -38 -62 -12 -23 -13 -22 -8 20 4 44 4
44 -6 10 -5 -19 -14 -44 -18 -55 -5 -11 -14 -37 -20 -58 -7 -22 -26 -48 -46
-64 -19 -14 -33 -31 -31 -38 3 -6 -8 -22 -24 -34 -17 -14 -29 -33 -29 -47 0
-13 -4 -24 -9 -24 -5 0 -17 -16 -27 -36 -11 -20 -29 -55 -41 -78 -12 -22 -22
-49 -22 -58 -1 -9 -5 -19 -10 -23 -5 -3 -17 -30 -26 -60 -8 -30 -19 -55 -24
-55 -5 0 -14 -15 -21 -32 -32 -87 -46 -116 -73 -151 -16 -21 -32 -36 -34 -33
-3 3 6 29 20 60 l25 55 -24 -11 c-13 -6 -24 -14 -24 -18 0 -3 -18 -25 -40 -48
-22 -22 -40 -46 -40 -52 0 -5 -7 -10 -15 -10 -8 0 -15 -4 -15 -10 0 -5 -6 -7
-14 -4 -8 3 -19 -3 -25 -14 -15 -27 -79 -59 -124 -60 -20 -1 -47 -6 -58 -13
-15 -8 -24 -8 -32 0 -23 23 -127 9 -127 -16 0 -11 -4 -13 -12 -5 -7 5 -33 10
-58 10 -102 0 -191 19 -229 49 -20 15 -49 35 -64 43 -15 7 -35 29 -44 48 -9
20 -30 42 -47 51 -16 9 -41 27 -54 41 -23 22 -22 19 8 -34 18 -32 27 -57 20
-54 -8 2 -18 13 -24 24 -6 10 -14 21 -17 24 -3 3 -9 12 -13 20 -16 35 -33 60
-37 55 -3 -2 -18 21 -35 53 -16 31 -38 70 -49 87 -11 16 -20 35 -21 42 -1 7
-14 23 -28 36 -14 13 -23 27 -20 30 4 3 25 -13 47 -36 29 -30 34 -33 19 -12
-33 49 -62 76 -74 69 -6 -4 -8 -3 -5 3 8 13 -66 83 -134 127 -53 33 -58 39
-69 88 -6 29 -18 67 -25 83 -7 17 -16 45 -20 62 -7 36 -22 50 -36 36 -11 -11
0 -69 31 -168 12 -38 23 -82 24 -97 0 -17 4 -24 10 -18 16 16 49 12 42 -5 -7
-20 4 -19 19 2 11 15 14 15 35 -5 26 -24 19 -43 -9 -25 -10 6 -23 8 -30 3 -9
-5 -10 -10 -2 -14 6 -4 11 -2 11 4 0 6 4 9 9 6 9 -6 4 -46 -6 -46 -2 0 -11 7
-20 16 -9 8 -22 13 -30 10 -8 -3 -11 -2 -8 3 3 5 0 13 -6 17 -8 5 -10 -5 -7
-34 2 -22 0 -38 -4 -36 -5 3 -8 2 -9 -3 0 -4 -2 -17 -4 -28 -29 -193 -20 -477
20 -630 28 -105 33 -148 20 -177 -4 -10 -2 -41 5 -69 7 -30 10 -74 6 -107 -4
-36 1 -106 13 -190 11 -74 17 -140 14 -148 -3 -8 0 -21 7 -28 8 -11 8 -20 1
-34 -5 -10 -7 -29 -4 -41 4 -17 2 -20 -13 -14 -13 5 -16 3 -11 -10 4 -11 1
-17 -8 -17 -8 0 -15 -6 -15 -13 0 -19 -24 -67 -33 -67 -4 0 -3 -9 3 -19 7 -13
7 -22 0 -26 -14 -9 -13 -85 2 -85 6 0 1 -11 -12 -26 -14 -14 -20 -28 -15 -32
6 -4 11 -15 13 -26 3 -13 -1 -17 -12 -13 -10 4 -20 -1 -26 -13 -8 -14 -8 -20
1 -20 6 0 20 -10 31 -22 15 -18 18 -19 14 -5 -3 11 0 17 10 17 8 0 13 4 9 9
-3 5 0 13 6 17 8 4 7 9 -2 15 -10 6 -11 11 -3 17 17 11 25 42 11 42 -8 0 -7 4
3 10 13 9 13 11 0 19 -12 9 -12 11 3 17 9 3 17 16 17 29 0 15 8 25 23 29 18 5
19 8 7 15 -12 9 -12 11 2 16 13 5 15 12 8 30 -7 19 -6 22 10 18 15 -4 18 1 17
36 -2 33 1 41 16 41 10 0 16 -4 13 -9 -4 -5 -1 -11 4 -13 6 -2 12 -33 14 -70
l4 -67 -25 10 c-34 13 -36 12 -31 -16 3 -14 1 -25 -4 -25 -5 0 -7 -4 -3 -9 3
-5 1 -13 -5 -16 -6 -4 -8 -16 -4 -27 5 -17 3 -20 -11 -14 -13 5 -16 2 -11 -10
4 -9 -1 -29 -11 -43 -36 -53 -44 -74 -32 -81 7 -5 4 -10 -7 -14 -15 -6 -16 -9
-5 -15 10 -7 11 -16 3 -42 -6 -19 -11 -48 -10 -65 0 -17 -2 -37 -7 -43 -4 -7
0 -18 10 -25 14 -10 15 -17 8 -31 -7 -12 -7 -30 -2 -49 13 -43 13 -116 0 -148
-5 -15 -9 -40 -7 -56 3 -16 -4 -47 -14 -70 -15 -33 -16 -40 -4 -35 12 4 14 0
8 -23 -7 -30 -24 -56 -24 -38 0 5 -5 2 -10 -6 -8 -13 -10 -12 -10 3 0 9 8 17
18 17 10 1 4 8 -18 20 -20 11 -28 19 -19 20 24 0 44 70 20 70 -5 0 -9 28 -9
63 0 34 -3 72 -7 85 -6 17 -3 22 9 22 16 0 18 9 19 60 1 14 7 30 16 36 12 10
11 16 -9 44 -22 31 -22 34 -6 60 20 35 21 66 1 74 -8 3 -15 10 -15 16 0 6 3 9
8 7 4 -3 13 1 20 9 10 11 8 15 -8 24 -26 14 -53 -10 -52 -48 0 -15 -4 -31 -8
-37 -5 -5 -8 -53 -8 -107 0 -53 -3 -102 -8 -109 -8 -14 -12 -119 -4 -119 8 0
5 -98 -3 -106 -10 -10 -9 -44 2 -44 4 0 7 -12 5 -27 -1 -15 2 -30 8 -34 7 -4
7 -13 0 -26 -6 -11 -8 -30 -5 -42 5 -18 11 -22 32 -18 27 5 22 -1 -25 -28 -16
-10 -16 -12 0 -28 10 -10 14 -22 10 -29 -5 -8 0 -7 11 2 17 14 17 13 11 -8 -6
-17 -4 -23 6 -21 34 4 38 -2 14 -23 -40 -36 -38 -129 2 -113 14 5 13 3 -1 -13
-15 -16 -16 -24 -6 -48 7 -16 12 -45 13 -64 1 -27 5 -35 19 -33 12 0 16 -4 13
-13 -3 -8 1 -19 8 -26 7 -7 11 -22 8 -33 -4 -16 -2 -18 9 -7 23 21 30 13 14
-18 -12 -24 -13 -30 -2 -30 7 0 19 6 26 13 11 10 12 9 7 -1 -4 -7 -12 -26 -16
-43 -8 -26 -7 -30 7 -25 10 4 14 2 10 -8 -3 -7 0 -22 7 -32 8 -11 17 -33 20
-51 9 -38 32 -50 46 -22 6 11 15 17 21 14 5 -4 9 -2 9 3 0 5 12 22 27 37 l28
28 -37 -6 c-21 -3 -38 -4 -38 -1 0 3 12 16 26 29 15 14 21 25 14 25 -8 0 2 14
20 30 l34 30 -34 -6 -33 -7 7 34 6 33 -42 -39 c-23 -22 -35 -31 -27 -20 9 11
29 39 43 63 24 39 25 42 7 32 -12 -6 -21 -16 -21 -22 0 -6 -3 -8 -7 -5 -3 4
-18 -3 -32 -15 -14 -13 -8 -3 14 20 22 24 70 64 108 89 37 25 67 47 67 48 0 2
-8 2 -17 1 -11 0 -17 6 -17 16 2 26 -29 6 -91 -56 -70 -69 -99 -91 -49 -36 76
83 142 148 154 152 9 3 8 9 -5 22 -17 17 -20 17 -30 2 -7 -9 -16 -16 -22 -16
-10 0 -73 -80 -93 -118 -6 -13 -14 -21 -17 -18 -4 3 -12 1 -18 -4 -10 -8 -11
-1 -5 30 8 44 5 48 -22 23 -17 -15 -18 -15 -18 10 0 15 -4 27 -10 27 -5 0 -7
6 -4 14 3 8 1 23 -4 33 -8 13 -7 22 4 35 9 9 16 22 18 30 1 7 5 18 9 24 8 13
-14 114 -25 114 -4 0 -10 -4 -13 -10 -3 -5 -13 -10 -21 -10 -11 0 -13 6 -8 23
4 12 8 31 8 42 4 46 19 96 29 92 27 -9 42 28 41 96 0 37 -3 69 -6 72 -9 9 4
65 16 65 6 0 5 4 -3 9 -8 5 -10 14 -5 22 4 8 7 28 5 46 -1 18 2 33 7 33 17 0
22 30 10 53 -12 23 -19 164 -9 182 3 6 6 15 7 20 3 26 17 54 29 59 18 7 77
-23 69 -35 -6 -10 -19 -5 -46 19 -10 8 -18 11 -18 6 0 -17 15 -29 60 -51 29
-15 38 -23 25 -23 -11 0 -32 7 -45 17 -22 14 -22 13 4 -15 18 -19 24 -32 16
-32 -7 0 -10 -3 -7 -6 4 -4 13 -2 20 5 11 9 17 8 27 -4 7 -8 16 -13 20 -10 10
6 52 -34 45 -45 -3 -4 -2 -10 2 -13 5 -2 2 -2 -4 -1 -7 2 -13 -1 -13 -6 0 -5
-7 -7 -15 -4 -8 4 -15 1 -15 -5 0 -18 -26 -13 -51 10 -17 15 -19 19 -6 15 29
-9 20 7 -26 43 -16 13 -17 12 -7 -13 9 -25 8 -26 -11 -16 -27 15 -55 -5 -38
-26 13 -16 33 -19 24 -4 -3 6 -3 10 2 10 14 -1 58 -28 56 -34 -7 -15 -2 -26
12 -26 9 0 15 -9 15 -25 0 -30 -25 -34 -33 -5 -3 11 -10 20 -17 20 -6 0 -8 -5
-5 -11 4 -6 -2 -13 -14 -16 -11 -3 -18 -10 -15 -15 4 -6 1 -14 -6 -18 -8 -5
-1 -7 16 -6 39 3 104 32 104 47 0 9 4 8 15 -1 12 -10 12 -15 -2 -36 -14 -23
-14 -24 4 -24 14 0 19 -7 19 -22 -1 -15 5 -22 21 -23 12 -1 20 2 17 7 -3 4 2
5 10 2 9 -3 16 -12 16 -20 0 -8 5 -13 11 -12 6 2 13 -7 15 -19 4 -23 -5 -27
-51 -24 -20 2 -20 1 -1 -14 15 -11 17 -18 9 -26 -6 -6 -9 -18 -6 -25 3 -8 -1
-14 -10 -14 -9 0 -23 -3 -33 -7 -11 -4 -15 -3 -11 4 4 6 0 14 -9 17 -24 9 -26
3 -9 -21 17 -25 52 -26 75 -3 33 34 69 88 62 94 -3 4 0 11 8 16 41 26 40 -7
-2 -67 -17 -25 -26 -43 -20 -39 16 10 15 -16 0 -34 -10 -11 -9 -11 6 0 15 12
20 12 23 3 10 -29 93 4 93 36 0 6 4 11 10 11 5 0 7 -13 4 -30 -4 -16 -2 -36 3
-42 16 -20 22 -68 9 -68 -6 0 -5 -4 3 -9 9 -6 12 -18 8 -32 -8 -31 23 -100 65
-141 19 -18 40 -52 47 -75 6 -24 20 -47 30 -52 10 -6 24 -24 31 -42 11 -26 11
-32 0 -39 -8 -5 -21 -5 -28 -1 -16 9 -50 3 -69 -12 -18 -13 -16 -28 2 -21 20
8 19 -6 -3 -31 -17 -20 -68 -33 -57 -14 4 5 -4 9 -17 9 -13 0 -34 6 -48 13
-34 16 -73 10 -88 -13 -8 -13 -8 -20 -2 -20 6 0 -5 -21 -25 -46 -19 -26 -35
-54 -35 -63 0 -9 12 3 26 27 27 45 53 54 61 22 3 -11 9 -20 13 -20 5 0 12 -9
15 -20 3 -11 15 -20 26 -20 11 0 19 -7 19 -17 0 -9 3 -13 7 -10 3 4 12 2 18
-3 9 -7 21 -7 40 2 21 10 28 9 35 -2 4 -7 6 -19 3 -27 -7 -17 48 -18 66 -1 11
10 13 10 7 1 -6 -12 5 -18 27 -14 11 2 9 -17 -3 -24 -5 -3 -10 -11 -10 -16 0
-6 11 2 25 17 26 27 37 12 13 -16 -7 -8 -3 -6 10 4 12 11 22 25 22 33 0 7 5
13 11 13 6 0 8 -8 4 -19 -3 -11 -1 -22 5 -26 5 -3 10 -1 10 5 0 6 5 8 10 5 6
-3 10 1 10 9 0 9 5 16 10 16 6 0 10 -7 10 -16 0 -14 2 -13 17 1 16 16 17 16
25 -4 12 -34 48 -24 54 16 3 19 -33 46 -52 39 -14 -5 -15 -4 -5 8 10 12 16 12
41 -1 17 -8 30 -21 30 -29 0 -8 8 -14 18 -14 10 0 23 -5 30 -12 9 -9 12 -9 12
1 0 7 6 11 15 8 11 -5 13 0 8 23 -3 20 -1 30 6 30 7 0 9 5 6 10 -11 17 17 11
32 -7 10 -13 16 -15 19 -5 7 16 41 16 47 0 9 -21 25 11 20 36 -5 21 -5 21 11
1 17 -20 17 -20 12 3 -4 19 1 26 25 34 16 5 29 15 29 21 0 6 7 19 16 29 16 16
15 19 -7 39 l-24 21 37 -20 c44 -24 56 -17 26 15 -22 23 -13 34 10 11 8 -8 12
-8 12 -1 0 15 -21 21 -58 17 -19 -2 -37 2 -46 12 -9 8 -20 13 -26 9 -5 -3 -18
-1 -29 5 -13 6 -22 6 -26 0 -3 -5 -12 -7 -20 -3 -9 3 -21 0 -29 -6 -7 -6 -22
-8 -31 -4 -13 4 -16 3 -11 -5 9 -15 1 -15 -26 -1 -18 10 -20 9 -14 -6 6 -16 4
-16 -10 -4 -15 12 -16 11 -11 -11 4 -14 4 -20 1 -13 -3 6 -15 10 -27 7 -16 -2
-26 4 -37 22 -12 21 -24 27 -58 29 -39 3 -43 1 -39 -15 3 -14 1 -17 -11 -13
-11 5 -14 2 -9 -10 4 -11 1 -17 -8 -17 -30 0 -15 96 20 125 7 6 18 26 25 45
18 47 50 89 72 96 10 3 18 10 18 15 0 5 10 20 22 34 18 20 24 23 37 12 14 -11
15 -10 1 7 -12 15 -12 20 -2 23 6 3 10 9 6 14 -3 5 0 9 7 9 9 0 9 4 -1 15 -13
15 -6 35 13 35 8 0 8 -3 -1 -9 -11 -7 -11 -11 1 -23 8 -8 12 -21 8 -29 -4 -8
-7 -20 -5 -26 1 -7 2 -17 3 -23 2 -19 23 -10 53 24 20 23 36 32 49 29 10 -3
19 -9 19 -14 0 -5 7 -9 16 -9 8 0 12 5 9 10 -3 5 -1 10 5 10 6 0 9 4 6 8 -3 5
1 9 9 9 8 0 16 -6 19 -14 7 -18 36 -17 36 2 0 23 26 18 56 -10 15 -14 28 -25
28 -25 1 0 2 16 2 35 0 22 -5 35 -13 35 -7 0 -14 5 -14 10 -1 6 -2 18 -4 28
-5 40 -30 77 -52 76 -12 -1 -32 9 -44 22 l-21 23 21 -6 c11 -3 21 -8 21 -12 0
-4 10 -8 22 -8 13 -1 34 -15 48 -30 14 -16 22 -24 18 -19 -15 19 -9 37 10 28
10 -6 26 -4 40 3 18 10 20 14 8 18 -8 3 -17 1 -19 -6 -3 -9 -8 -9 -17 0 -9 8
-7 13 10 18 16 5 18 10 10 20 -13 15 -3 24 23 20 9 -2 17 3 17 11 0 18 -31 48
-53 52 -22 4 -22 -24 1 -37 15 -9 15 -10 0 -11 -34 0 -75 60 -59 88 9 15 10
14 11 -5 0 -13 5 -23 10 -23 9 0 14 14 11 32 -2 12 17 9 24 -3 4 -6 12 -8 19
-6 6 3 20 -7 30 -21 11 -14 14 -22 8 -18 -7 4 -12 3 -12 -3 0 -13 41 -36 58
-33 6 2 12 -4 12 -13 0 -10 -10 -15 -27 -16 -16 0 -22 -3 -15 -6 6 -2 10 -9 6
-14 -8 -13 20 -11 34 3 7 7 12 9 12 4 0 -4 10 0 22 8 29 20 44 21 28 1 -7 -9
-10 -18 -7 -22 8 -8 57 38 57 54 0 8 11 12 26 11 21 -2 22 -4 10 -13 -18 -13
-10 -27 24 -41 l25 -11 -31 -16 c-17 -9 -34 -14 -37 -11 -3 3 -23 -6 -46 -20
-22 -14 -44 -26 -48 -26 -5 0 -1 5 7 10 10 7 11 10 2 10 -7 0 -15 -7 -18 -15
-4 -8 -15 -15 -25 -15 -10 0 -19 -4 -19 -10 0 -5 5 -10 10 -10 6 0 10 -5 10
-11 0 -8 -4 -8 -15 1 -15 12 -16 35 -2 58 5 7 4 12 -2 12 -19 0 -12 16 12 29
22 11 22 11 -3 5 -34 -9 -53 -31 -45 -52 3 -9 8 -36 11 -60 4 -38 2 -42 -18
-43 -16 -1 -13 -3 11 -9 19 -5 38 -15 43 -24 5 -9 15 -16 23 -16 8 0 17 -5 21
-11 9 -16 -36 -1 -54 18 -8 8 -17 11 -20 8 -4 -3 0 -10 8 -15 12 -8 12 -10 -3
-16 -9 -3 -17 -12 -17 -20 0 -14 13 -17 155 -34 50 -6 100 -13 113 -14 12 -2
22 1 22 6 0 4 14 6 30 3 24 -4 30 -2 30 13 0 10 10 28 23 40 34 32 46 49 40
56 -4 3 3 6 15 6 12 0 22 -6 22 -14 0 -8 6 -16 13 -19 7 -3 1 -9 -15 -15 -39
-16 -41 -28 -2 -27 40 2 44 -11 9 -27 -18 -8 -22 -14 -13 -19 7 -4 19 -2 27 4
12 10 12 9 1 -10 -8 -12 -19 -19 -25 -16 -5 3 -4 0 3 -8 6 -7 12 -16 12 -20 0
-8 -72 -5 -86 4 -14 8 -146 34 -214 41 l-55 6 24 -20 c13 -11 31 -20 40 -20
26 0 245 -52 254 -60 5 -4 -47 5 -115 21 -138 32 -165 35 -128 14 14 -8 19
-14 12 -15 -7 0 -10 -5 -7 -10 7 -11 -38 6 -70 27 -24 16 -39 17 -29 2 4 -7
-7 -1 -24 11 -18 13 -35 20 -39 16 -4 -4 -3 -10 2 -14 6 -4 17 -16 25 -26 15
-19 14 -19 -12 -2 -26 17 -26 17 -21 -3 4 -16 0 -21 -13 -22 -15 0 -14 -2 5
-10 14 -5 32 -11 40 -12 9 -2 26 -8 38 -15 12 -7 27 -12 33 -12 6 0 16 -5 23
-10 7 -6 43 -26 81 -44 60 -29 72 -32 84 -20 7 8 16 14 20 15 4 0 17 2 30 5
14 2 21 0 17 -6 -3 -5 -13 -10 -21 -10 -8 0 -12 -5 -9 -10 3 -6 -1 -10 -11
-10 -13 0 -14 -3 -4 -15 14 -17 35 -21 25 -5 -3 6 1 7 10 3 13 -5 14 -7 3 -14
-9 -6 -7 -9 10 -9 12 0 22 -4 22 -9 0 -5 14 -14 30 -21 36 -15 49 -31 20 -23
-11 3 -23 9 -26 14 -3 5 -10 9 -17 9 -8 0 -8 -3 1 -12 7 -7 12 -16 12 -21 0
-6 -12 4 -27 21 -16 17 -50 41 -78 54 -27 13 -59 30 -70 36 -56 33 -179 82
-187 74 -9 -9 60 -43 92 -46 9 0 40 -25 70 -55 30 -30 40 -42 21 -27 -59 48
-234 126 -248 112 -2 -2 52 -31 119 -66 68 -34 129 -67 135 -72 7 -6 19 -8 27
-5 8 3 22 -3 31 -13 9 -10 27 -17 40 -16 16 2 22 -1 18 -10 -2 -7 5 -19 16
-26 12 -7 21 -18 21 -24 0 -18 -37 -5 -63 23 -23 25 -104 71 -149 84 -21 6
-26 4 -21 -7 3 -8 10 -14 16 -14 6 0 2 -7 -9 -15 -16 -13 -17 -16 -4 -26 11
-8 12 -12 3 -16 -19 -7 -16 -26 3 -19 12 4 15 2 11 -9 -4 -8 4 -22 17 -33 13
-10 26 -27 28 -38 2 -10 11 -18 19 -16 8 2 11 0 7 -3 -4 -4 -3 -17 3 -29 6
-11 -5 -3 -25 19 -19 22 -35 35 -36 28 0 -6 -3 -19 -7 -29 -4 -10 -2 -15 3
-11 6 3 16 2 24 -4 12 -7 12 -9 1 -9 -9 0 -11 -7 -8 -23 7 -26 -6 -52 -22 -43
-6 4 -11 0 -11 -8 0 -9 7 -16 15 -16 8 0 15 -8 15 -17 0 -15 -2 -16 -10 -3
-13 19 -13 8 0 -24 7 -18 6 -26 -1 -26 -6 0 -9 -9 -6 -20 l5 -20 -28 20 c-15
11 -31 20 -34 20 -13 0 8 -56 26 -68 23 -16 24 -34 1 -25 -12 5 -14 3 -9 -8 4
-8 0 -5 -8 5 -15 18 -16 18 -16 2 0 -9 -4 -15 -9 -12 -4 3 -6 -18 -4 -47 3
-28 5 -59 5 -67 1 -8 4 -20 9 -25 18 -23 -36 -137 -55 -118 -3 4 -6 -8 -6 -26
0 -19 -4 -30 -10 -26 -13 8 -13 -41 0 -65 7 -12 7 -21 0 -25 -5 -3 -17 10 -27
29 -9 20 -20 36 -24 36 -12 0 11 -84 26 -96 8 -6 15 -19 15 -28 0 -10 5 -26
11 -38 6 -11 8 -22 5 -25 -13 -13 -65 62 -76 110 l-8 32 -1 -30 c-2 -29 -2
-29 -18 -10 -15 19 -15 19 -9 -5 15 -58 15 -62 1 -56 -8 3 -15 4 -16 3 -6 -18
-9 -100 -3 -95 4 4 13 3 21 -3 14 -13 18 1 4 16 -4 6 -11 23 -15 38 -5 22 -4
28 6 24 7 -2 12 -9 11 -15 -4 -18 26 -2 30 16 3 13 6 11 15 -10 18 -43 25
-141 13 -183 -8 -30 -8 -41 2 -47 17 -10 30 29 24 72 l-5 35 15 -34 c8 -18 12
-40 9 -48 -4 -8 2 -27 13 -41 33 -48 39 -101 6 -55 -11 15 -12 14 -8 -11 4
-19 2 -27 -5 -22 -5 3 -13 24 -17 46 -4 22 -12 41 -18 41 -7 1 -19 2 -27 3
-16 1 -27 36 -11 36 5 0 0 11 -12 24 -22 24 -41 18 -30 -11 3 -7 0 -13 -6 -13
-15 0 -38 51 -34 75 l3 20 -9 -20 c-4 -11 -6 -27 -4 -35 3 -10 1 -9 -7 3 -14
22 -31 22 -23 0 5 -11 3 -14 -6 -8 -8 4 -16 2 -21 -5 -6 -9 -12 -9 -29 -1 -11
7 -21 15 -21 19 0 4 -4 13 -9 21 -8 13 -12 13 -26 1 -19 -16 -55 -21 -55 -8 0
4 5 8 11 8 16 0 2 47 -21 73 -27 29 -35 16 -9 -16 15 -20 16 -25 5 -21 -11 4
-16 1 -16 -11 0 -9 5 -13 10 -10 6 3 10 1 10 -4 0 -6 -7 -11 -15 -11 -8 0 -12
-6 -9 -13 3 -8 -2 -14 -11 -14 -18 0 -19 20 -4 48 6 11 8 33 4 48 l-6 28 -30
-28 c-17 -16 -28 -33 -24 -39 10 -16 -8 -11 -32 9 -23 20 -31 55 -14 66 6 3 8
14 6 25 -4 23 5 26 23 8 8 -8 12 -8 12 -1 0 6 -7 13 -15 17 -8 3 -15 14 -15
24 0 14 -6 19 -24 17 -39 -5 -45 -13 -39 -50 4 -23 2 -35 -6 -35 -6 0 -10 10
-9 22 0 13 0 28 -2 33 -5 21 0 46 9 41 13 -8 38 3 45 19 4 12 0 12 -20 3 -20
-10 -27 -9 -35 3 -7 12 -9 12 -10 -1 -1 -8 -1 -23 0 -32 3 -26 -32 -40 -55
-23 -16 13 -17 16 -4 25 12 7 16 4 21 -13 5 -19 7 -18 13 11 6 23 4 38 -4 45
-10 9 -11 8 -6 -7 5 -14 3 -16 -6 -9 -19 14 -51 10 -56 -7 -5 -13 -3 -13 11
-1 10 7 17 9 17 4 0 -5 -11 -15 -25 -21 -30 -14 -55 6 -55 44 0 28 -15 32 -29
7 -8 -14 -10 -15 -11 -3 0 13 -1 13 -10 0 -5 -9 -5 -19 2 -27 7 -9 6 -14 -6
-19 -14 -5 -16 -15 -10 -50 5 -37 4 -44 -10 -44 -16 0 -24 -15 -58 -100 -8
-18 -12 -21 -16 -10 -3 8 -10 18 -16 23 -7 5 -5 12 8 22 13 10 17 21 12 40 -4
14 -11 23 -16 20 -6 -3 -10 0 -11 7 0 7 -4 3 -9 -9 -6 -13 -18 -23 -30 -23
-11 0 -20 -4 -20 -10 0 -5 -4 -10 -10 -10 -5 0 -10 6 -10 14 0 17 -32 15 -38
-2 -2 -7 -8 -12 -13 -12 -16 0 -9 19 17 45 14 14 24 33 23 43 -3 33 1 41 17
35 11 -4 23 2 35 18 10 13 19 19 19 12 0 -6 14 -11 33 -10 27 2 32 6 32 27 0
14 -5 24 -12 23 -9 -2 -10 4 -2 24 11 30 4 77 -10 68 -5 -3 -12 1 -14 7 -4 9
-6 7 -6 -3 -1 -9 -9 -23 -18 -30 -13 -11 -12 -5 5 24 27 46 30 76 6 57 -8 -8
-14 -9 -13 -4 1 5 0 20 -1 34 -2 18 -4 20 -7 8 -7 -27 -21 -21 -28 12 -4 17
-11 28 -16 25 -16 -11 -47 29 -44 57 2 16 -3 29 -12 32 -9 4 -12 13 -8 27 5
14 0 26 -15 39 -16 14 -21 27 -18 48 2 17 -3 34 -13 46 -10 10 -15 24 -12 32
9 25 -23 15 -37 -11 -7 -14 -29 -33 -48 -43 -42 -21 -76 -80 -74 -126 1 -22
-5 -36 -18 -44 -17 -10 -20 -10 -20 5 0 9 -3 13 -7 9 -4 -4 -8 -30 -9 -57 -1
-46 1 -49 24 -49 18 0 22 -3 15 -13 -6 -6 -10 -26 -10 -44 0 -17 -5 -38 -11
-46 -22 -26 52 -6 77 22 12 14 25 21 27 15 3 -6 21 -9 40 -8 30 3 35 1 30 -14
-4 -12 0 -10 13 5 15 19 20 20 25 8 3 -9 17 -20 31 -25 27 -10 34 -47 13 -68
-9 -9 -9 -12 -1 -12 7 0 15 5 18 10 10 16 25 12 19 -5 -4 -8 -1 -15 5 -15 6 0
11 5 11 10 0 16 17 12 24 -5 3 -9 1 -24 -5 -33 -14 -22 -59 -45 -59 -30 0 6
-8 4 -18 -5 -19 -17 -50 -8 -38 12 4 6 1 11 -8 11 -8 0 -17 -4 -21 -10 -3 -5
-13 -6 -21 -3 -12 5 -9 12 15 37 35 36 39 48 13 39 -14 -6 -15 -4 -5 8 10 13
10 16 -4 16 -8 0 -18 -8 -20 -18 -3 -10 -18 -22 -33 -27 -24 -9 -27 -8 -23 8
8 28 -13 32 -31 5 -14 -21 -14 -24 -1 -19 17 7 19 -9 5 -36 -8 -15 -7 -18 3
-14 10 3 13 -5 12 -32 -1 -28 -8 -42 -33 -63 -18 -14 -32 -31 -32 -37 0 -7 -7
-15 -16 -18 -9 -3 -14 -13 -10 -21 3 -8 1 -17 -3 -20 -11 -6 -23 24 -15 37 4
6 -5 2 -20 -7 -32 -21 -50 -75 -30 -91 8 -6 14 -17 14 -24 0 -10 4 -9 17 1 15
13 15 12 4 -9 -14 -26 1 -48 37 -54 24 -4 72 38 72 62 0 9 8 24 18 33 10 9 19
28 20 42 1 15 7 34 12 43 9 14 10 10 7 -16 -4 -35 8 -44 16 -12 3 13 10 18 21
14 9 -3 14 -10 11 -14 -3 -5 4 -6 16 -3 18 5 20 3 11 -13 -14 -29 -5 -46 20
-33 18 9 18 8 9 -10 -15 -27 -14 -34 4 -27 8 3 15 1 15 -5 0 -6 4 -8 9 -5 5 4
17 3 27 -1 16 -6 16 -7 -2 -20 -10 -7 -14 -13 -9 -13 4 0 0 -9 -10 -20 -20
-22 -30 -54 -14 -44 5 3 7 8 5 12 -5 8 15 26 32 29 7 2 12 -4 12 -13 0 -9 5
-13 13 -9 6 4 -4 -7 -23 -24 -26 -23 -30 -31 -17 -31 9 0 17 4 17 10 0 5 10
15 23 21 22 12 22 12 3 -10 -27 -30 -7 -26 27 7 25 23 28 24 18 5 -15 -30 -15
-31 14 -28 23 3 30 -5 26 -29 -3 -16 23 -25 36 -14 17 13 25 7 14 -11 -5 -7
-20 -14 -34 -14 -14 -1 -23 -5 -21 -9 2 -3 -2 -8 -8 -11 -7 -2 -11 -7 -8 -10
10 -11 81 11 95 30 13 17 14 17 15 1 0 -10 -4 -18 -9 -18 -5 0 -14 -14 -21
-30 -7 -17 -20 -35 -29 -40 -12 -7 -9 -8 14 -7 20 2 34 10 42 27 8 15 13 19
13 10 0 -9 -5 -21 -12 -28 -9 -9 145 -12 695 -12 732 0 733 0 695 38 -7 7 -8
12 -2 12 14 0 43 -37 36 -46 -4 -3 0 -5 8 -2 8 3 14 14 13 25 -1 12 7 25 20
32 l22 12 -24 -5 c-16 -3 -25 0 -28 14 -4 14 -13 17 -38 15 -33 -3 -57 18 -32
29 9 3 8 8 -3 15 -13 9 -13 11 2 11 9 0 24 10 32 22 15 21 15 23 -6 31 -12 4
-36 5 -52 2 l-31 -6 25 20 c21 17 23 22 10 30 -8 6 -11 13 -7 18 5 4 16 -3 26
-16 10 -13 23 -21 29 -17 6 3 13 2 17 -4 7 -12 25 -4 25 11 0 5 -11 21 -25 35
-20 20 -22 26 -10 30 15 6 21 25 8 23 -23 -4 -25 3 -4 17 15 11 21 23 18 36
-4 15 -3 17 8 8 8 -7 19 -9 24 -5 6 3 19 -3 31 -15 21 -21 45 -26 54 -11 4 5
0 11 -6 14 -20 7 -2 19 29 20 15 0 22 2 16 4 -18 6 -16 43 2 43 8 0 15 9 15
20 0 11 3 20 8 20 4 0 16 14 27 30 13 21 26 29 38 26 10 -2 21 2 24 10 3 8 10
14 17 14 6 0 24 20 41 44 16 24 34 42 39 39 5 -4 15 2 23 13 12 16 15 17 23 4
8 -12 11 -12 28 3 10 9 22 17 27 17 5 0 16 7 26 16 15 14 18 13 35 -8 26 -31
52 -29 101 10 22 17 46 32 52 32 6 0 11 6 11 13 1 7 7 4 15 -7 10 -13 20 -16
32 -11 10 5 25 9 33 9 10 1 15 11 15 30 0 34 -25 42 -64 21 -32 -17 -60 -27
-86 -30 -11 -2 -37 -6 -58 -9 -21 -4 -64 0 -97 8 -33 7 -60 9 -60 5 0 -5 -13
-9 -30 -9 -23 0 -30 5 -30 19 0 11 -4 23 -10 26 -6 4 -4 17 6 36 12 24 21 30
42 27 15 -2 30 -7 33 -12 9 -12 54 20 67 49 6 13 19 24 29 23 40 0 116 28 127
47 14 26 28 36 43 30 6 -2 17 11 22 28 11 31 57 62 88 58 6 -1 14 3 18 9 9 15
25 12 25 -6 0 -8 5 -12 11 -9 6 4 13 -2 16 -14 5 -19 6 -19 34 9 20 19 29 39
29 60 0 28 -2 31 -22 24 -49 -15 -68 -24 -68 -32 0 -4 -9 -8 -20 -8 -11 0 -20
4 -20 8 0 4 -8 8 -18 8 -15 0 -18 6 -14 29 2 16 -1 38 -7 50 -8 14 -8 21 -1
21 5 0 10 -4 10 -10 0 -5 5 -10 11 -10 7 0 10 12 7 29 -3 22 -1 28 11 23 11
-4 13 -1 7 13 -12 33 49 50 74 20 7 -8 18 -15 24 -15 6 1 -2 11 -18 24 -18 15
-24 26 -17 30 6 4 30 -7 53 -25 l41 -33 -6 32 c-6 28 -4 32 14 32 13 0 18 4
13 12 -9 15 14 2 43 -25 32 -29 38 -16 12 27 l-21 36 21 0 c12 0 30 -5 41 -12
30 -19 34 -3 6 25 -22 22 -27 24 -35 10 -10 -19 -35 -7 -27 13 3 8 0 11 -9 8
-8 -3 -12 -11 -9 -17 2 -7 0 -18 -5 -26 -8 -13 -12 -13 -27 0 -15 12 -16 12
-10 -9 6 -18 4 -22 -13 -22 -12 0 -21 3 -21 8 0 9 -52 8 -68 -2 -7 -4 -12 -5
-12 -1 0 3 -10 0 -22 -7 -13 -7 -27 -12 -31 -13 -5 0 -24 -14 -43 -30 -135
-114 -149 -136 -139 -212 4 -35 3 -53 -4 -53 -6 0 -11 8 -12 18 0 9 -3 12 -5
5 -4 -8 -15 -9 -37 -2 -44 13 -43 13 -68 -27 -12 -20 -38 -53 -58 -74 -20 -20
-54 -58 -76 -84 -22 -25 -46 -46 -52 -46 -7 0 -19 -15 -27 -32 -34 -74 -69
-91 -118 -56 -38 26 -107 40 -75 14 18 -14 18 -14 -2 -21 -12 -3 -21 -13 -21
-21 0 -8 -9 -24 -20 -36 -19 -20 -25 -48 -21 -90 2 -14 -5 -18 -28 -18 -16 0
-35 -2 -43 -3 -7 -2 -10 -2 -5 0 4 3 4 9 1 14 -4 6 -11 6 -19 -1 -10 -9 -18
-7 -32 8 -39 41 -50 60 -43 71 5 9 10 8 19 -3 7 -8 28 -24 47 -35 30 -18 36
-19 40 -6 4 9 0 22 -7 31 -16 19 -21 60 -5 44 5 -5 16 -10 23 -10 10 0 11 5 3
19 -14 27 -13 31 5 25 11 -5 13 -2 9 10 -5 12 0 16 21 16 15 0 24 4 20 10 -3
6 1 10 9 10 20 0 20 7 1 26 -22 22 -2 57 28 49 19 -5 18 -3 -6 16 -21 16 -25
24 -16 30 7 4 14 25 15 46 1 21 3 43 4 48 7 31 -2 57 -22 65 -13 5 -18 9 -13
9 6 1 -5 10 -22 21 -18 11 -40 17 -49 13 -14 -5 -16 -2 -12 15 4 13 1 22 -4
22 -6 0 -3 9 7 20 17 19 38 95 37 135 -1 27 16 35 47 22 36 -15 35 -15 22 -31
-9 -11 -7 -15 8 -19 11 -3 22 -2 25 1 11 10 6 42 -5 42 -8 0 -8 5 1 15 7 9 9
22 5 32 -5 10 -9 23 -10 28 -2 14 -15 47 -27 70 -6 11 -12 35 -14 55 -6 65
-17 125 -25 136 -4 5 -6 19 -3 31 3 11 0 24 -7 29 -9 5 -10 2 -6 -10 10 -24
-1 -40 -18 -26 -10 8 -12 4 -10 -20 1 -17 5 -33 9 -37 3 -3 6 -18 5 -32 0 -26
0 -26 -9 -3 -13 30 -24 28 -16 -3 4 -14 2 -25 -4 -25 -5 0 -10 9 -10 19 0 11
-9 22 -19 26 -11 3 -24 19 -30 35 -5 17 -16 30 -23 30 -10 0 -9 3 2 9 8 6 17
8 20 6 14 -8 6 51 -8 62 -14 10 -15 12 -2 13 8 0 21 -4 29 -9 8 -5 20 -7 28
-4 11 4 10 9 -4 26 -18 19 -17 20 5 8 28 -15 28 -7 1 20 -28 28 -17 36 18 14
25 -17 27 -17 14 -1 -18 22 -24 69 -8 60 7 -3 4 1 -5 9 -26 21 -22 30 11 25
28 -4 29 -4 14 19 -17 26 -28 31 -20 9 5 -11 0 -13 -25 -5 -39 11 -47 19 -20
19 11 0 24 6 29 12 13 21 10 58 -5 58 -7 0 -10 5 -7 10 3 6 18 10 32 10 22 0
25 4 21 25 -4 20 -2 23 12 15 14 -8 16 -5 12 15 -2 14 -9 22 -15 18 -6 -4 -7
-1 -2 6 18 31 1 212 -25 261 -6 10 -5 21 1 27 6 6 6 19 -1 38 -7 19 -7 30 -1
35 12 7 0 53 -26 103 -11 21 -12 31 -3 42 9 11 7 16 -11 25 -12 7 -18 15 -13
19 12 8 12 114 1 122 -5 4 -13 26 -18 50 -4 24 -11 55 -15 69 -13 54 -25 268
-28 510 -2 140 -4 302 -5 360 -1 60 5 148 14 205 19 114 23 389 6 451 -6 21
-13 66 -16 98 -3 33 -10 63 -16 67 -7 4 -9 17 -5 34 4 15 3 24 -2 21 -5 -3
-10 11 -10 32 0 20 -3 49 -7 63 -5 18 2 45 23 90 46 98 73 162 70 165 -2 1
-14 -14 -28 -34z m-60 -264 c0 -4 -4 -8 -10 -8 -5 0 -10 4 -10 9 0 5 -3 18 -6
28 -5 16 -4 16 10 -1 9 -11 16 -23 16 -28z m-44 -30 c-9 -12 -16 -19 -16 -15
0 11 24 47 28 42 2 -2 -3 -14 -12 -27z m34 -103 c-7 -9 -23 -21 -34 -27 -16
-8 -14 -3 8 21 29 31 51 36 26 6z m-1735 -15 c3 -5 2 -10 -4 -10 -5 0 -13 5
-16 10 -3 6 -2 10 4 10 5 0 13 -4 16 -10z m1630 -54 c-43 -37 -60 -39 -29 -5
16 18 47 37 64 38 3 0 -13 -15 -35 -33z m-44 1 c-10 -9 -11 -8 -5 6 3 10 9 15
12 12 3 -3 0 -11 -7 -18z m-1623 -33 c0 -34 -1 -35 -16 -19 -12 12 -14 19 -5
22 7 2 9 11 6 19 -3 8 -1 14 5 14 5 0 10 -16 10 -36z m-68 -5 c0 -6 -4 -7 -10
-4 -5 3 -10 11 -10 16 0 6 5 7 10 4 6 -3 10 -11 10 -16z m87 -69 c7 -8 10 -22
7 -31 -2 -10 2 -19 12 -23 11 -4 15 -2 11 7 -3 8 1 14 8 14 20 0 14 -20 -10
-34 -16 -9 -17 -12 -5 -16 8 -2 30 -9 48 -15 37 -12 43 0 15 30 -14 15 -14 19
-3 16 21 -4 37 -47 45 -115 9 -81 13 -90 38 -98 20 -6 20 -7 4 -13 -17 -7 -16
-9 7 -22 14 -7 26 -19 26 -25 0 -7 18 -24 40 -39 22 -14 51 -44 64 -65 23 -36
24 -41 11 -82 -19 -64 -37 -99 -46 -93 -5 3 -9 -4 -9 -15 0 -22 -9 -26 -26
-13 -5 4 -1 -1 9 -10 11 -11 14 -19 7 -23 -6 -4 -8 -15 -5 -26 5 -15 1 -19
-15 -19 -13 0 -24 -8 -27 -20 -3 -11 -10 -20 -17 -21 -6 -1 -25 -2 -42 -4 -17
-1 -43 -11 -58 -20 -24 -16 -29 -16 -37 -4 -5 8 -9 20 -9 27 0 8 -5 10 -12 6
-7 -4 3 7 22 24 19 17 31 31 25 32 -5 0 1 8 14 17 l24 16 -22 9 c-18 6 -27 3
-42 -14 l-20 -23 7 24 c4 15 1 26 -7 32 -10 6 -8 12 10 26 26 21 43 103 21
103 -8 0 -10 8 -6 26 5 17 3 23 -4 19 -5 -3 -10 -1 -10 5 0 6 -4 8 -10 5 -5
-3 -10 -1 -10 6 0 8 -4 8 -16 -2 -13 -11 -14 -9 -8 17 4 16 13 42 21 57 8 16
12 38 10 50 -3 21 -4 21 -15 -3 -10 -24 -11 -24 -11 -2 -1 29 -10 28 -38 -5
-13 -16 -20 -20 -17 -10 3 9 2 17 -4 17 -6 0 -7 10 -4 23 6 22 6 22 12 -3 l6
-25 14 25 c7 13 20 31 28 40 14 13 13 16 -14 21 -24 5 -26 7 -11 13 21 10 23
28 2 20 -22 -9 -18 14 5 28 30 19 24 31 -12 26 -30 -5 -31 -4 -12 11 12 9 19
22 16 29 -2 6 3 12 12 12 24 0 19 19 -6 30 -13 5 -17 9 -10 9 8 1 5 9 -8 24
l-21 22 22 5 c21 5 21 6 -5 19 -14 8 -26 18 -26 22 0 12 53 -13 67 -31z m58
-1 c11 -17 2 -18 -19 -3 -17 12 -17 14 -4 14 9 0 20 -5 23 -11z m1605 -9 c-8
-5 -10 -10 -5 -10 6 0 -15 -16 -45 -35 -30 -19 -50 -35 -43 -35 6 0 15 5 18
10 8 13 52 13 60 0 7 -12 -18 -40 -35 -40 -19 0 -70 -30 -70 -41 0 -6 13 -1
29 10 28 20 111 38 111 23 0 -4 -4 -13 -9 -21 -7 -10 -4 -19 7 -28 16 -11 16
-12 -1 -13 -15 0 -16 -3 -7 -20 9 -17 8 -20 -12 -20 l-23 0 25 -20 c19 -15 21
-20 9 -20 -11 0 -18 -11 -21 -29 -2 -17 0 -27 5 -24 5 3 7 -3 5 -13 -2 -11
-11 -18 -21 -18 -22 2 -21 -2 3 -34 15 -19 17 -27 9 -33 -9 -5 -8 -14 4 -33 9
-14 17 -36 17 -50 0 -14 5 -28 10 -31 6 -3 10 -10 10 -15 0 -5 -16 0 -35 11
-19 12 -35 16 -35 11 0 -11 -38 -28 -53 -24 -4 1 -6 -4 -5 -10 2 -7 -12 -20
-29 -28 -18 -8 -33 -17 -33 -20 0 -3 25 -6 57 -7 55 -3 80 -11 56 -20 -7 -3
-13 -11 -13 -19 0 -11 16 -14 65 -14 39 0 65 -4 65 -11 0 -5 4 -7 10 -4 6 4 7
-1 3 -11 -4 -11 -8 -13 -11 -6 -6 18 -46 14 -69 -7 -11 -10 -29 -21 -39 -24
-17 -4 -16 -5 3 -6 12 0 25 4 28 10 12 19 56 30 71 18 16 -13 16 -13 33 16 11
18 12 16 7 -14 -3 -18 -6 -49 -6 -69 0 -19 -3 -32 -7 -28 -8 8 -10 13 -12 46
-1 23 -35 27 -75 9 -22 -10 -23 -13 -10 -26 8 -8 11 -19 8 -25 -4 -6 -9 -5
-15 3 -4 7 -11 10 -15 6 -14 -13 30 -36 59 -30 16 3 27 1 27 -6 0 -6 -11 -11
-25 -11 -14 0 -25 -4 -25 -10 0 -5 -18 -14 -40 -20 -22 -6 -40 -14 -40 -19 0
-5 -11 -6 -25 -3 -14 2 -25 1 -25 -2 0 -4 11 -11 25 -16 14 -5 25 -17 25 -25
0 -9 -5 -13 -11 -10 -6 4 -27 7 -47 7 -65 0 -102 44 -56 69 25 13 31 33 14 44
-6 4 -8 15 -5 26 5 14 2 19 -11 19 -24 0 0 27 29 33 14 3 9 5 -13 6 -48 2 -19
21 32 21 20 0 40 5 43 10 6 10 -4 12 -75 14 -39 1 -63 13 -55 26 3 5 1 11 -5
15 -5 3 -10 22 -10 40 0 23 -4 33 -12 30 -29 -11 -42 13 -43 79 -1 36 1 66 5
66 4 0 10 13 13 28 7 32 47 105 54 98 3 -2 0 -13 -6 -25 -7 -12 -7 -22 -2 -26
6 -3 18 19 27 49 10 30 24 56 33 59 9 2 24 18 34 36 15 25 15 31 4 31 -18 0
-27 32 -15 53 4 9 15 14 23 11 15 -6 22 11 8 19 -5 2 -2 2 5 0 8 -1 12 3 9 9
-7 18 69 93 95 95 18 2 20 0 8 -7z m-1683 -402 c-3 -8 -6 -5 -6 6 -1 11 2 17
5 13 3 -3 4 -12 1 -19z m1375 -61 c-9 -18 -22 7 -21 41 l0 37 13 -35 c7 -19
11 -38 8 -43z m-482 -38 c0 -6 -4 -7 -10 -4 -5 3 -10 11 -10 16 0 6 5 7 10 4
6 -3 10 -11 10 -16z m-30 -75 c0 -8 -4 -12 -10 -9 -5 3 -10 13 -10 21 0 8 5
12 10 9 6 -3 10 -13 10 -21z m-393 -126 c-3 -8 -6 -5 -6 6 -1 11 2 17 5 13 3
-3 4 -12 1 -19z m-159 -93 c-13 -29 -31 -28 -37 1 -3 16 -1 17 13 5 14 -11 16
-11 16 3 0 9 4 16 10 16 6 0 5 -10 -2 -25z m512 -5 c0 -5 -4 -10 -10 -10 -5 0
-10 5 -10 10 0 6 5 10 10 10 6 0 10 -4 10 -10z m-820 -30 c6 -12 7 -20 1 -20
-5 0 -7 -9 -4 -20 4 -14 0 -20 -12 -20 -14 0 -16 -7 -13 -30 3 -17 -1 -35 -8
-41 -9 -7 -14 7 -19 62 -6 55 -4 73 6 80 22 14 38 10 49 -11z m181 -17 c23
-24 28 -34 15 -29 -10 3 -24 2 -30 -2 -6 -5 -18 -9 -26 -9 -9 0 -29 -3 -45 -7
-18 -4 -25 -3 -17 2 17 12 22 45 8 54 -6 4 1 8 15 8 15 0 29 -7 33 -15 3 -8
12 -15 21 -15 19 0 19 9 -2 32 -31 34 -7 18 28 -19z m85 15 c-11 18 9 15 25
-4 11 -14 9 -15 -16 -12 -16 1 -31 10 -33 18 -5 13 -3 13 13 0 11 -9 16 -10
11 -2z m-36 -12 c0 -3 -4 -8 -10 -11 -5 -3 -10 -1 -10 4 0 6 5 11 10 11 6 0
10 -2 10 -4z m40 -58 c0 -14 -19 1 -31 25 -12 22 -12 22 10 3 11 -11 21 -23
21 -28z m1064 26 c3 -8 2 -12 -4 -9 -6 3 -10 1 -10 -6 0 -7 -3 -10 -6 -6 -7 6
2 37 10 37 2 0 7 -7 10 -16z m-1027 -36 c-3 -8 -6 -5 -6 6 -1 11 2 17 5 13 3
-3 4 -12 1 -19z m1079 -5 c-6 -30 -27 -48 -37 -31 -4 7 2 22 14 35 28 29 28
29 23 -4z m-936 7 c0 -5 -4 -10 -10 -10 -5 0 -10 5 -10 10 0 6 5 10 10 10 6 0
10 -4 10 -10z m181 -57 c-9 -16 -10 -14 -11 12 0 21 3 26 11 18 8 -8 8 -16 0
-30z m238 7 c1 10 12 4 32 -18 25 -26 30 -39 26 -61 -3 -16 -2 -32 2 -37 5 -5
5 -34 1 -64 -8 -62 -3 -100 11 -78 6 9 9 9 9 1 0 -6 -4 -15 -10 -18 -15 -10
-12 -35 5 -35 8 0 15 -7 15 -16 0 -8 -4 -12 -10 -9 -13 8 -13 -31 0 -55 7 -14
6 -17 -7 -16 -9 0 -18 -5 -21 -13 -3 -9 0 -11 8 -6 8 5 11 3 8 -5 -7 -22 -25
-22 -31 -1 -3 11 -1 21 4 23 6 2 5 24 -2 55 -10 40 -10 59 -1 78 11 24 11 25
-9 14 -13 -7 -19 -7 -15 -1 3 6 2 13 -4 17 -5 3 -10 24 -10 45 0 29 4 38 14
34 13 -5 30 19 29 44 -2 48 -4 54 -18 49 -11 -5 -13 1 -9 26 4 25 3 29 -5 17
-10 -13 -12 -13 -21 0 -5 8 -9 24 -9 35 l0 20 9 -20 c6 -13 9 -15 9 -5z m-374
-101 c-16 -20 -25 -43 -25 -67 0 -20 -7 -45 -15 -55 -7 -11 -11 -25 -9 -32 3
-7 1 -29 -4 -48 -6 -19 -6 -39 -2 -44 13 -15 29 -93 18 -93 -6 0 -8 -7 -5 -15
4 -8 2 -17 -2 -20 -5 -3 -11 2 -15 10 -3 8 -10 15 -15 15 -6 0 -8 -7 -5 -15 4
-8 2 -15 -4 -15 -12 0 -32 54 -32 90 -1 14 5 46 12 72 12 39 16 45 31 37 19
-11 20 -9 11 15 -3 9 -10 13 -15 10 -5 -3 -9 0 -9 5 0 6 5 11 11 11 6 0 8 9 4
21 -4 13 -3 19 3 16 5 -4 9 9 9 31 0 43 19 86 34 77 5 -4 9 4 9 17 0 18 2 20
10 8 14 -22 23 -5 10 19 -6 12 -8 27 -4 33 5 8 11 0 16 -20 8 -28 5 -38 -17
-63z m115 55 c0 -8 -4 -14 -10 -14 -5 0 -10 2 -10 4 0 2 -3 12 -6 20 -5 12 -2
15 10 10 9 -3 16 -12 16 -20z m163 6 c-3 -11 -9 -20 -14 -20 -4 0 -7 9 -6 20
1 11 7 20 13 20 7 0 10 -8 7 -20z m299 -32 c-3 -13 -1 -19 5 -15 11 7 9 -71
-2 -102 -4 -11 -2 -11 8 -3 11 9 13 7 13 -11 -1 -12 -6 -25 -13 -29 -6 -5 -9
-16 -6 -27 3 -10 0 -22 -6 -25 -6 -4 -11 -15 -11 -25 0 -21 -22 -71 -32 -71
-10 0 -9 49 1 74 10 26 2 67 -13 60 -6 -3 -1 3 11 13 16 13 22 28 21 53 0 20
4 45 10 57 9 15 9 30 2 48 -13 34 -13 35 4 29 8 -3 12 -13 8 -26z m-203 -29
c2 -40 -17 -99 -31 -99 -5 0 -8 -9 -8 -21 0 -11 4 -18 9 -14 16 10 22 -12 10
-39 -22 -48 -31 -28 -26 57 3 45 6 84 7 87 1 3 2 16 1 30 -1 23 0 23 8 5 5
-11 10 -14 12 -7 1 6 3 17 4 22 1 6 3 12 4 15 3 15 7 0 10 -36z m181 21 c0 -5
-5 -10 -11 -10 -5 0 -7 5 -4 10 3 6 8 10 11 10 2 0 4 -4 4 -10z m-715 -70 c-4
-6 -1 -18 6 -26 6 -8 9 -17 5 -21 -3 -3 -6 0 -6 8 0 8 -6 3 -14 -11 -8 -17
-10 -29 -3 -38 6 -7 11 -43 12 -81 3 -79 35 -158 87 -214 18 -19 38 -54 45
-78 15 -54 28 -138 24 -161 -1 -10 3 -18 8 -18 6 0 11 9 11 21 0 11 4 18 9 14
6 -3 15 3 21 14 9 18 7 21 -15 27 -16 4 -25 13 -25 26 0 10 5 16 10 13 6 -4
10 5 10 20 0 16 4 24 11 19 6 -3 9 -19 7 -35 -3 -15 -1 -26 3 -24 4 3 10 -3
13 -12 6 -15 8 -15 16 -3 11 17 13 9 4 -14 -3 -9 -10 -13 -15 -10 -14 9 -10
-11 7 -32 8 -10 13 -13 9 -6 -3 6 -3 18 1 24 6 9 10 5 15 -12 10 -37 10 -62 0
-55 -5 3 -19 -8 -31 -25 -12 -17 -26 -28 -31 -25 -5 4 -9 1 -9 -4 0 -6 -4 -11
-10 -11 -5 0 -10 14 -10 32 0 24 -3 29 -11 21 -6 -6 -11 -23 -11 -38 0 -15 -5
-24 -12 -22 -14 4 -24 77 -25 177 -1 101 -20 135 -91 172 -30 16 -66 30 -80
32 -31 3 -76 -27 -101 -68 -10 -17 -19 -25 -19 -17 0 11 -3 11 -17 0 -15 -13
-15 -12 -6 6 6 11 9 28 8 37 -2 10 2 21 7 25 7 3 8 1 4 -5 -4 -7 -2 -12 3 -12
16 0 13 20 -4 26 -8 4 -15 10 -15 15 0 4 7 6 15 3 18 -7 19 2 3 20 -7 7 -21
11 -32 8 -12 -3 -17 -1 -14 8 2 7 14 14 26 15 26 2 42 16 25 22 -19 7 -16 21
7 28 18 6 77 -19 91 -38 3 -5 12 -9 20 -10 8 -2 20 -6 26 -10 9 -6 11 -3 6 10
-6 16 -5 16 10 4 16 -12 17 -10 13 23 -3 20 -8 41 -11 46 -3 6 -1 10 5 10 6 0
-2 11 -17 25 -15 13 -23 25 -16 25 9 0 8 10 -2 41 -18 49 -18 52 -5 44 9 -5
16 41 11 69 -1 5 5 6 14 2 13 -5 15 -1 9 17 -4 12 -11 24 -15 25 -5 2 -6 8 -3
13 3 5 15 -2 25 -16 11 -13 17 -30 14 -35z m276 -31 c-6 -28 -8 -55 -5 -61 4
-7 2 -8 -4 -4 -16 9 -15 81 1 125 10 29 13 31 15 12 2 -12 -1 -44 -7 -72z
m139 -2 c-7 -23 -15 -36 -17 -29 -3 7 0 26 5 42 8 20 7 30 -1 33 -6 2 -8 11
-3 23 8 18 9 18 19 -4 7 -16 7 -34 -3 -65z m-221 31 c0 -31 -1 -31 -10 -10 -5
13 -7 28 -3 33 10 16 14 9 13 -23z m951 24 c0 -4 -10 -13 -22 -21 -23 -14 -23
-14 -4 8 20 22 26 25 26 13z m-270 -17 c0 -8 -4 -15 -10 -15 -5 0 -10 7 -10
15 0 8 5 15 10 15 6 0 10 -7 10 -15z m-701 -43 c1 -10 -3 -9 -15 3 -10 9 -13
22 -9 33 7 15 8 15 15 -3 5 -11 9 -26 9 -33z m515 3 c-4 -8 -7 -15 -9 -15 -2
0 -5 7 -9 15 -3 9 0 15 9 15 9 0 12 -6 9 -15z m210 -10 c-4 -8 -11 -15 -16
-15 -6 0 -5 6 2 15 7 8 14 15 16 15 2 0 1 -7 -2 -15z m-1084 -25 c8 -5 11 -12
8 -16 -10 -9 -38 3 -38 16 0 12 10 13 30 0z m370 -11 c0 -6 -5 -7 -10 -4 -7 4
-8 -3 -4 -22 6 -24 5 -26 -8 -16 -8 7 -18 10 -21 6 -4 -3 -7 -1 -7 5 0 7 5 12
11 12 6 0 8 7 5 16 -3 8 -2 12 4 9 6 -3 10 -1 10 5 0 6 5 8 10 5 6 -3 10 -11
10 -16z m1070 5 c0 -8 -19 -13 -24 -6 -3 5 1 9 9 9 8 0 15 -2 15 -3z m-1441
-41 c2 -2 -5 -3 -16 -3 -11 0 -20 7 -20 15 0 12 3 12 16 3 9 -7 18 -14 20 -15z
m441 -30 c-11 -17 -11 -17 -6 0 3 10 6 24 7 30 0 9 2 9 5 0 3 -7 0 -20 -6 -30z
m112 15 c-7 -7 -12 -8 -12 -2 0 6 3 14 7 17 3 4 9 5 12 2 2 -3 -1 -11 -7 -17z
m553 13 c-3 -5 4 -13 16 -16 l21 -7 -21 -19 c-22 -20 -36 -25 -26 -9 3 6 1 10
-5 10 -6 0 -8 5 -5 10 3 6 1 10 -4 10 -18 0 -12 18 7 23 9 3 18 5 20 6 2 0 1
-3 -3 -8z m-90 -20 c-3 -6 -11 -11 -17 -11 -6 0 -6 6 2 15 14 17 26 13 15 -4z
m-1050 -1 c3 -5 2 -10 -4 -10 -5 0 -13 5 -16 10 -3 6 -2 10 4 10 5 0 13 -4 16
-10z m104 -4 c9 -10 7 -17 -6 -27 -9 -8 -14 -9 -10 -3 4 7 1 17 -6 23 -11 8
-13 4 -9 -19 4 -29 27 -38 43 -17 3 4 13 -1 23 -12 13 -14 14 -21 5 -27 -8 -4
-10 -3 -5 4 5 8 -5 11 -34 8 -36 -4 -42 -1 -39 21 0 4 -6 10 -14 13 -11 4 -12
11 -6 28 9 25 40 29 58 8z m1001 -32 c0 -6 -11 -16 -25 -22 -16 -7 -25 -8 -25
-1 0 5 10 14 23 20 18 8 18 9 2 5 -11 -2 -29 -7 -40 -12 -15 -6 -12 0 10 23
27 27 31 28 42 14 7 -9 13 -21 13 -27z m500 31 c0 -8 -7 -15 -16 -15 -14 0
-14 3 -4 15 7 8 14 15 16 15 2 0 4 -7 4 -15z m-1200 -27 c0 -5 -9 -4 -20 2
-11 6 -18 15 -14 21 6 11 34 -7 34 -23z m340 12 c0 -5 -5 -10 -11 -10 -5 0 -7
5 -4 10 3 6 8 10 11 10 2 0 4 -4 4 -10z m445 -27 c-10 -7 -16 -16 -12 -19 3
-4 1 -16 -5 -28 -10 -19 -9 -19 12 2 12 13 25 21 28 17 3 -3 1 -10 -5 -16 -14
-14 -5 -39 14 -39 17 0 13 -22 -5 -28 -7 -2 -12 3 -12 11 0 8 -18 24 -40 36
-22 11 -40 16 -40 11 0 -6 7 -13 15 -17 13 -4 12 -8 -6 -21 l-22 -15 22 -18
c12 -10 20 -23 17 -28 -4 -5 0 -16 8 -23 11 -12 9 -14 -20 -15 -19 -1 -34 3
-34 8 0 5 -14 18 -31 28 -20 12 -26 21 -17 24 9 4 8 6 -3 6 -9 1 -19 -6 -23
-14 -3 -8 -11 -15 -18 -15 -9 0 -8 3 2 10 12 8 11 10 -7 10 -13 0 -23 -4 -23
-10 0 -5 -3 -9 -7 -9 -28 4 -45 -2 -39 -16 3 -8 1 -16 -4 -16 -21 -3 -26 -5
-53 -23 -21 -14 -32 -37 -52 -105 -41 -140 -46 -155 -57 -178 -19 -39 -26 -26
-22 46 5 97 35 186 74 221 36 32 55 64 65 108 8 39 34 51 27 14 l-5 -27 26 23
c18 17 26 20 29 10 4 -10 8 -10 23 2 15 12 17 12 10 1 -6 -11 -4 -13 7 -8 9 3
34 11 57 18 45 13 50 23 24 38 -16 9 -16 10 -2 16 8 3 28 1 42 -4 15 -6 28 -7
29 -3 0 4 2 12 3 17 2 6 3 18 4 27 1 18 34 30 40 14 2 -5 -4 -15 -14 -23z
m-687 0 c10 -18 9 -20 -8 -16 -20 5 -26 23 -13 36 7 8 7 9 21 -20z m102 12 c0
-8 -4 -15 -10 -15 -5 0 -7 7 -4 15 4 8 8 15 10 15 2 0 4 -7 4 -15z m770 1 c0
-2 -12 -11 -27 -20 l-28 -17 24 20 c23 21 31 25 31 17z m-1410 -28 c0 -6 -6
-5 -15 2 -8 7 -15 14 -15 16 0 2 7 1 15 -2 8 -4 15 -11 15 -16z m610 1 c0 -6
-4 -7 -10 -4 -5 3 -10 11 -10 16 0 6 5 7 10 4 6 -3 10 -11 10 -16z m200 -37
c0 -25 -25 10 -27 37 l-1 26 14 -25 c7 -14 13 -31 14 -38z m-381 10 c0 -15 -4
-36 -8 -47 -7 -17 -8 -17 -15 8 -3 15 -2 36 3 46 6 10 7 22 3 26 -4 5 -1 5 6
1 6 -4 12 -19 11 -34z m895 23 c-4 -8 -8 -15 -10 -15 -2 0 -4 7 -4 15 0 8 4
15 10 15 5 0 7 -7 4 -15z m341 5 c-3 -5 -16 -10 -28 -9 -21 0 -21 1 -2 9 28
12 37 12 30 0z m-915 -10 c0 -5 -5 -10 -11 -10 -5 0 -7 5 -4 10 3 6 8 10 11
10 2 0 4 -4 4 -10z m136 -17 c-10 -10 -19 5 -10 18 6 11 8 11 12 0 2 -7 1 -15
-2 -18z m-906 -5 c0 -5 -9 -4 -20 2 -11 6 -20 12 -20 14 0 2 9 2 20 -1 11 -3
20 -9 20 -15z m95 2 c3 -5 4 -10 1 -10 -2 0 -12 -3 -20 -6 -12 -5 -15 -2 -10
10 7 18 20 21 29 6z m1280 -10 c4 -6 -7 -10 -27 -9 -31 1 -32 1 -8 9 14 4 26
8 27 9 1 1 5 -3 8 -9z m40 -17 c-28 -15 -42 -12 -30 6 3 6 11 9 16 6 5 -4 9
-2 9 4 0 6 7 8 16 4 13 -5 11 -9 -11 -20z m-1427 -8 c-3 -3 -9 2 -12 12 -6 14
-5 15 5 6 7 -7 10 -15 7 -18z m682 4 c0 -6 -4 -7 -10 -4 -5 3 -10 11 -10 16 0
6 5 7 10 4 6 -3 10 -11 10 -16z m44 -5 c3 -8 2 -12 -4 -9 -6 3 -10 10 -10 16
0 14 7 11 14 -7z m-634 -15 c0 -5 -4 -9 -10 -9 -5 0 -10 7 -10 16 0 8 5 12 10
9 6 -3 10 -10 10 -16z m1290 11 c0 -5 -5 -10 -11 -10 -5 0 -7 5 -4 10 3 6 8
10 11 10 2 0 4 -4 4 -10z m64 -15 c-4 -8 -17 -15 -31 -15 -22 0 -24 2 -13 15
7 8 21 15 31 15 12 0 16 -5 13 -15z m-201 -20 c21 -29 16 -31 -18 -9 -14 9
-22 20 -19 25 8 14 18 10 37 -16z m-568 -15 c-4 -12 -9 -19 -12 -17 -3 3 -2
15 2 27 4 12 9 19 12 17 3 -3 2 -15 -2 -27z m819 -1 c-6 -11 -24 -2 -24 11 0
5 7 7 15 4 8 -4 12 -10 9 -15z m-1029 1 c-3 -5 -12 -10 -18 -10 -7 0 -6 4 3
10 19 12 23 12 15 0z m417 -12 c-7 -7 -12 -8 -12 -2 0 6 3 14 7 17 3 4 9 5 12
2 2 -3 -1 -11 -7 -17z m557 15 c12 10 14 9 8 -7 -5 -13 -3 -17 7 -13 10 4 13
1 9 -9 -5 -13 16 -19 65 -17 14 1 16 -13 3 -22 -5 -3 -12 -1 -16 4 -3 6 -12 8
-21 4 -8 -3 -24 3 -35 13 -12 10 -34 18 -54 17 -22 0 -35 4 -35 12 0 9 8 11
22 7 16 -4 19 -2 13 9 -6 11 -5 12 5 2 11 -10 17 -10 29 0z m-699 -13 c0 -5
-2 -10 -4 -10 -3 0 -8 5 -11 10 -3 6 -1 10 4 10 6 0 11 -4 11 -10z m1010 -4
c0 -11 -19 -15 -25 -6 -3 5 1 10 9 10 9 0 16 -2 16 -4z m-1102 -31 c-3 -3 -9
2 -12 12 -6 14 -5 15 5 6 7 -7 10 -15 7 -18z m-147 -34 c-5 -22 -5 -41 -1 -41
5 0 10 6 13 13 2 6 4 -3 3 -20 -1 -33 -9 -42 -21 -22 -13 20 -18 112 -6 105 6
-4 11 -2 11 5 0 7 2 10 5 7 3 -3 2 -24 -4 -47z m59 11 c0 -17 -17 -7 -31 19
-9 18 -9 19 10 7 12 -7 21 -19 21 -26z m493 31 c-7 -2 -19 -2 -25 0 -7 3 -2 5
12 5 14 0 19 -2 13 -5z m211 -9 c3 -8 2 -12 -4 -9 -6 3 -10 10 -10 16 0 14 7
11 14 -7z m41 6 c3 -6 -1 -7 -9 -4 -18 7 -21 14 -7 14 6 0 13 -4 16 -10z
m-688 -22 c-3 -8 -6 -5 -6 6 -1 11 2 17 5 13 3 -3 4 -12 1 -19z m1157 7 c-4
-8 -11 -15 -16 -15 -6 0 -5 6 2 15 7 8 14 15 16 15 2 0 1 -7 -2 -15z m-1053
-18 c-10 -9 -11 -8 -5 6 3 10 9 15 12 12 3 -3 0 -11 -7 -18z m804 -26 c3 -5 1
-12 -4 -15 -5 -3 -11 1 -15 9 -6 16 9 21 19 6z m-825 -49 c8 2 15 -6 17 -17 3
-16 2 -17 -6 -5 -6 8 -11 10 -11 4 0 -23 -25 -9 -27 14 0 15 2 20 6 13 4 -7
14 -11 21 -9z m850 3 c11 -13 9 -15 -11 -11 -13 3 -26 5 -29 5 -4 1 21 20 26
21 1 0 7 -7 14 -15z m-549 -22 c-8 -15 -10 -15 -11 -2 0 17 10 32 18 25 2 -3
-1 -13 -7 -23z m-721 13 c0 -3 -5 -17 -10 -32 -11 -28 -4 -94 11 -94 11 0 65
51 61 58 -2 4 1 8 6 10 5 1 12 -6 15 -18 3 -11 1 -18 -4 -14 -5 3 -9 1 -9 -5
0 -5 4 -13 10 -16 13 -8 -14 -74 -38 -91 -12 -9 -21 -9 -29 -2 -7 6 -13 7 -13
4 0 -4 -7 -1 -15 8 -8 8 -15 19 -15 24 0 5 -9 17 -20 27 -13 12 -18 25 -14 38
4 13 2 17 -5 13 -17 -11 -13 10 4 24 9 7 15 20 14 29 -3 33 2 41 26 41 14 0
25 -2 25 -4z m380 -6 c0 -5 -2 -10 -4 -10 -3 0 -8 5 -11 10 -3 6 -1 10 4 10 6
0 11 -4 11 -10z m625 -51 c-4 -18 -16 -34 -28 -39 -12 -5 -17 -9 -10 -9 16 -1
-117 -128 -163 -156 -21 -13 -58 -29 -82 -36 -23 -7 -41 -17 -39 -23 2 -6 -3
-17 -10 -25 -12 -12 -17 -12 -30 2 -15 14 -18 45 -10 89 5 28 13 30 44 15 24
-13 34 -13 67 -2 43 15 106 72 139 125 11 19 30 43 41 53 12 10 21 26 21 35 0
21 47 33 58 15 5 -8 5 -27 2 -44z m-543 29 c-7 -7 -12 -8 -12 -2 0 6 3 14 7
17 3 4 9 5 12 2 2 -3 -1 -11 -7 -17z m-205 -25 c3 -7 -4 -9 -16 -6 -12 3 -18
9 -15 15 7 11 26 6 31 -9z m-389 -70 c39 -105 141 -174 191 -129 11 10 21 13
24 9 10 -17 -1 -80 -18 -107 -17 -26 -27 -33 -23 -18 4 22 -22 47 -84 78 -82
41 -139 91 -167 145 -21 40 -20 65 2 53 9 -5 9 -3 0 6 -10 11 -9 16 5 26 26
19 47 1 70 -63z m965 50 c3 -5 -1 -14 -9 -20 -14 -14 -30 0 -19 17 7 12 22 13
28 3z m274 -15 c4 -7 8 -21 8 -31 0 -10 7 -22 15 -28 12 -8 11 -9 -5 -7 -11 2
-25 -3 -32 -12 -19 -25 -27 -3 -9 27 14 22 9 19 -20 -11 -25 -26 -46 -39 -66
-40 -16 -1 -33 -7 -37 -15 -6 -9 -11 -10 -15 -3 -4 6 6 19 20 29 22 14 28 15
32 4 2 -7 17 6 37 33 18 25 35 43 39 39 3 -3 6 1 6 10 0 20 15 22 27 5z m219
3 c-4 -5 -1 -12 4 -14 6 -3 5 -4 -2 -3 -15 3 -23 26 -8 26 6 0 9 -4 6 -9z
m-995 -24 c-10 -9 -11 -8 -5 6 3 10 9 15 12 12 3 -3 0 -11 -7 -18z m89 -2
c-11 -13 -15 -13 -22 -3 -6 9 -7 5 -3 -9 5 -17 2 -23 -10 -23 -11 0 -15 7 -13
23 2 16 9 22 26 21 12 0 22 4 22 9 0 6 3 7 6 4 4 -4 1 -14 -6 -22z m950 -29
c0 -20 -13 -27 -30 -15 -13 8 -13 10 0 19 21 14 30 12 30 -4z m35 -25 c3 -5 2
-12 -3 -15 -5 -3 -9 1 -9 9 0 17 3 19 12 6z m-230 -27 c29 -31 31 -38 10 -30
-20 7 -19 4 5 -24 25 -29 18 -40 -21 -35 -24 3 -29 0 -25 -11 8 -21 -12 -17
-24 5 -16 31 -12 49 13 54 16 3 13 5 -10 6 -18 0 -35 1 -38 1 -10 -1 -35 28
-35 39 0 6 5 11 10 11 6 0 10 -5 10 -11 0 -7 9 -5 23 4 32 23 55 20 82 -9z
m-775 -9 c7 -8 16 -12 21 -9 5 3 6 -3 2 -12 -6 -16 -7 -16 -18 0 -20 26 -29
18 -10 -10 20 -30 11 -46 -10 -18 -14 19 -17 64 -4 64 4 0 12 -7 19 -15z m988
-11 c-11 -11 -23 -14 -35 -9 -15 7 -13 9 12 15 17 4 32 8 35 9 2 0 -3 -6 -12
-15z m82 6 c0 -5 -4 -10 -10 -10 -5 0 -10 5 -10 10 0 6 5 10 10 10 6 0 10 -4
10 -10z m-457 -11 c-6 -6 -9 -18 -6 -25 3 -8 0 -14 -7 -14 -6 0 -8 5 -5 10 4
6 -5 10 -20 10 -15 0 -24 -4 -20 -10 4 -6 11 -7 17 -4 6 4 8 -1 6 -11 -1 -10
-14 -20 -27 -22 -19 -3 -21 -1 -12 10 6 8 8 17 4 20 -3 4 -13 -2 -20 -13 -8
-11 -19 -18 -24 -14 -13 8 49 54 72 54 10 0 21 5 24 10 3 6 11 10 18 10 8 0 8
-3 0 -11z m407 -9 c0 -5 -2 -10 -4 -10 -3 0 -8 5 -11 10 -3 6 -1 10 4 10 6 0
11 -4 11 -10z m-970 -25 c0 -8 -4 -15 -10 -15 -5 0 -10 7 -10 15 0 8 5 15 10
15 6 0 10 -7 10 -15z m637 -5 c-7 -8 -18 -19 -25 -23 -7 -5 -10 -12 -7 -17 3
-5 -4 -14 -16 -20 -11 -7 -18 -14 -15 -17 9 -9 -45 -34 -57 -26 -5 3 -16 -2
-23 -11 -12 -17 -15 -16 -41 9 -19 18 -24 29 -15 32 6 3 12 9 12 15 0 7 -5 7
-13 -1 -8 -6 -17 -8 -20 -4 -4 3 -7 2 -7 -3 0 -6 5 -15 12 -22 9 -9 9 -12 -2
-12 -11 -1 -10 -4 3 -15 18 -13 18 -14 -2 -25 -22 -11 -41 -6 -41 11 0 6 9 7
22 3 20 -6 21 -5 10 9 -8 9 -11 21 -7 27 3 5 2 10 -4 10 -5 0 -13 -5 -16 -10
-4 -6 -11 -8 -16 -4 -5 3 -7 10 -3 15 3 5 10 7 15 4 5 -4 14 5 21 19 14 31 27
33 56 6 12 -12 28 -17 39 -14 38 12 62 27 57 35 -3 5 2 6 11 3 19 -8 46 13 39
31 -4 9 3 12 19 11 21 -1 23 -4 14 -16z m-51 -17 c-10 -10 -19 5 -10 18 6 11
8 11 12 0 2 -7 1 -15 -2 -18z m348 -3 c-22 -9 -29 -6 -20 9 4 6 14 7 23 4 15
-6 14 -7 -3 -13z m-1167 -4 c-3 -6 -10 -10 -16 -8 -6 1 -11 -3 -11 -10 0 -6
-2 -9 -5 -6 -10 9 6 35 21 35 8 0 13 -5 11 -11z m993 -31 c-8 -10 -8 -14 2
-18 9 -4 9 -6 -2 -6 -19 -1 -45 -31 -45 -50 0 -8 -7 -16 -15 -18 -13 -4 -13
-3 0 7 12 9 12 11 1 8 -8 -2 -15 -14 -16 -26 -2 -23 -20 -42 -68 -68 -29 -15
-63 -12 -53 5 4 5 0 11 -6 14 -14 5 18 38 65 65 26 16 36 32 18 32 -5 0 -11 9
-14 20 -4 16 1 21 30 26 21 4 38 2 42 -4 4 -7 12 -6 23 2 10 7 16 15 13 17 -2
3 5 5 16 6 16 2 18 -1 9 -12z m-373 -1 c-3 -3 -12 -4 -19 -1 -8 3 -5 6 6 6 11
1 17 -2 13 -5z m-957 -59 c0 -8 -4 -15 -9 -15 -13 0 -22 16 -14 24 11 11 23 6
23 -9z m926 -5 c8 0 14 -7 14 -15 0 -14 -3 -13 -24 2 -13 10 -21 22 -18 28 3
5 7 4 10 -3 2 -7 10 -12 18 -12z m447 8 c-2 -5 -15 -8 -28 -8 -13 0 -26 3 -28
8 -3 4 10 7 28 7 18 0 31 -3 28 -7z m141 -13 c-4 -8 -1 -15 5 -15 6 0 11 5 11
10 0 6 5 10 11 10 8 0 8 -4 0 -14 -12 -15 -5 -46 11 -46 5 0 6 -4 3 -10 -3 -5
-1 -10 4 -10 18 0 12 -14 -15 -34 -20 -14 -28 -16 -37 -6 -9 9 -8 15 6 25 14
10 15 14 5 19 -10 5 -10 7 0 12 9 4 7 13 -8 34 -24 34 -25 40 -5 40 9 0 12 -6
9 -15z m-1539 -15 c-3 -5 -11 -10 -16 -10 -6 0 -7 5 -4 10 3 6 11 10 16 10 6
0 7 -4 4 -10z m35 -26 c0 -8 5 -14 10 -14 6 0 10 5 10 10 0 6 8 5 20 -2 11 -7
20 -19 20 -26 0 -7 -4 -10 -10 -7 -5 3 -10 1 -10 -4 0 -6 -9 -11 -20 -11 -11
0 -20 -7 -20 -15 0 -8 -4 -15 -9 -15 -5 0 -11 7 -15 15 -3 8 -1 15 5 15 6 0 8
17 5 40 -3 24 -1 38 5 35 5 -4 9 -13 9 -21z m847 6 c1 -12 -4 -20 -13 -20 -12
0 -12 4 -4 20 6 11 12 20 13 20 2 0 3 -9 4 -20z m216 14 c10 -10 -4 -34 -20
-34 -8 0 -11 -4 -8 -10 3 -5 15 -10 26 -10 11 0 17 -4 14 -10 -10 -16 -19 -12
-58 25 -21 20 -31 35 -23 35 8 0 18 -4 21 -10 10 -16 35 -12 29 5 -6 15 7 21
19 9z m437 -25 c0 -5 -4 -9 -10 -9 -5 0 -10 7 -10 16 0 8 5 12 10 9 6 -3 10
-10 10 -16z m60 11 c0 -5 -4 -10 -10 -10 -5 0 -10 5 -10 10 0 6 5 10 10 10 6
0 10 -4 10 -10z m-470 -20 c0 -5 -5 -10 -11 -10 -5 0 -7 5 -4 10 3 6 8 10 11
10 2 0 4 -4 4 -10z m200 -10 c0 -5 5 -10 11 -10 5 0 7 5 4 10 -3 6 -1 10 4 10
20 0 11 -39 -9 -45 -30 -9 -24 -27 8 -23 19 2 28 9 30 26 2 13 10 22 20 22 10
0 13 -3 7 -8 -15 -11 -15 -42 1 -42 8 0 14 -4 14 -10 0 -5 -7 -10 -15 -10 -8
0 -19 -9 -25 -20 -9 -16 -8 -20 7 -21 16 0 15 -1 -2 -8 -27 -11 -38 -3 -31 24
5 19 1 24 -25 29 -17 3 -28 10 -24 16 3 5 0 10 -8 10 -8 0 -18 -7 -21 -16 -9
-24 -19 -10 -11 15 3 12 13 21 21 21 9 0 12 5 8 11 -3 6 0 15 7 20 19 12 29
11 29 -1z m-1200 -38 c0 -15 -2 -15 -10 -2 -13 20 -13 33 0 25 6 -3 10 -14 10
-23z m760 24 c0 -11 -19 -15 -25 -6 -3 5 1 10 9 10 9 0 16 -2 16 -4z m20 -21
c-7 -9 -15 -13 -19 -10 -3 3 1 10 9 15 21 14 24 12 10 -5z m-80 -25 c0 -5 -4
-10 -10 -10 -5 0 -10 5 -10 10 0 6 5 10 10 10 6 0 10 -4 10 -10z m270 -1 c0
-7 9 -9 22 -6 27 7 48 -8 48 -35 0 -15 5 -18 21 -13 23 8 21 -1 -10 -37 -17
-20 -36 -25 -25 -6 5 8 0 9 -16 5 -16 -4 -28 0 -41 16 -18 22 -23 87 -7 87 4
0 8 -5 8 -11z m-140 -3 c0 -2 -7 -6 -15 -10 -8 -3 -15 -1 -15 4 0 6 7 10 15
10 8 0 15 -2 15 -4z m-857 -26 c-3 -12 -8 -19 -11 -16 -5 6 5 36 12 36 2 0 2
-9 -1 -20z m55 8 c-2 -6 -10 -14 -16 -16 -7 -2 -10 2 -6 12 7 18 28 22 22 4z
m720 -6 c2 -7 -2 -10 -12 -6 -9 3 -16 1 -16 -5 0 -6 7 -11 16 -11 11 0 14 -6
9 -20 -4 -12 -2 -20 5 -20 6 0 14 -8 17 -17 4 -10 14 -23 22 -30 12 -9 13 -12
2 -13 -8 0 -11 -6 -6 -17 4 -13 1 -12 -15 5 -11 12 -25 22 -30 22 -6 0 -10 5
-10 11 0 5 4 8 9 4 5 -3 12 -2 15 3 2 4 -5 9 -16 9 -12 1 -28 9 -37 19 -15 15
-14 16 6 9 22 -6 22 -5 8 21 -10 21 -11 31 -3 41 12 15 30 13 36 -5z m367 -2
c6 -9 -16 -40 -28 -40 -4 0 -2 40 2 48 3 6 20 1 26 -8z m-300 -10 c3 -5 -1
-10 -9 -10 -8 0 -18 5 -21 10 -3 6 1 10 9 10 8 0 18 -4 21 -10z m481 -77 c-28
-16 -29 -16 -56 7 l-23 20 24 0 c13 0 33 7 44 16 18 14 20 13 26 -8 4 -17 0
-26 -15 -35z m27 -66 c-3 -5 6 -20 18 -34 17 -18 20 -27 12 -30 -7 -3 -13 -12
-13 -20 0 -23 -27 2 -34 32 -4 14 -11 25 -17 25 -6 0 -8 4 -4 9 3 5 1 12 -5
16 -17 10 -11 25 13 34 16 6 24 4 28 -8 4 -9 4 -20 2 -24z m-497 9 c16 -17 18
-26 4 -26 -5 0 -14 9 -20 20 -12 23 -5 26 16 6z m-41 -65 c3 -5 0 -13 -6 -17
-7 -4 -9 -3 -5 4 3 5 0 13 -6 15 -9 4 -10 6 -1 6 6 1 14 -3 18 -8z m429 -55
c-5 -25 -4 -28 11 -22 14 5 16 4 6 -7 -8 -11 -6 -16 13 -25 31 -14 28 -44 -5
-53 l-24 -6 27 -13 c15 -7 25 -17 22 -22 -3 -5 -12 -4 -20 3 -12 10 -15 10
-12 -1 2 -8 -5 -16 -14 -18 -11 -2 -18 2 -18 12 0 8 -5 18 -12 22 -7 5 -8 2
-3 -7 6 -11 5 -11 -5 -2 -9 9 -19 9 -33 2 -14 -8 -18 -8 -13 0 5 7 -2 11 -16
12 -22 1 -21 2 5 12 15 6 27 17 27 24 0 13 26 13 47 0 14 -9 24 5 15 20 -6 9
-20 9 -51 2 -66 -15 -84 -6 -34 18 39 18 40 20 22 31 -11 7 -24 10 -30 6 -6
-3 -5 5 3 17 7 13 14 26 15 28 1 2 17 6 35 10 39 9 50 -3 42 -43z m-639 24 c3
-5 -1 -10 -10 -10 -9 0 -13 5 -10 10 3 6 8 10 10 10 2 0 7 -4 10 -10z m240 0
c-3 -5 -14 -10 -23 -10 -15 0 -15 2 -2 10 20 13 33 13 25 0z m270 -20 c-3 -5
-12 -10 -18 -10 -7 0 -6 4 3 10 19 12 23 12 15 0z m335 -5 c-7 -8 -19 -15 -26
-15 -8 0 -11 -6 -8 -15 4 -10 0 -15 -15 -15 -16 0 -21 6 -21 24 0 20 6 25 33
29 17 2 36 5 41 5 5 1 3 -5 -4 -13z m-820 -10 c0 -12 -19 -12 -23 0 -4 9 -1
12 9 8 7 -3 14 -7 14 -8z m990 -10 c7 -9 8 -15 2 -15 -5 0 -12 7 -16 15 -3 8
-4 15 -2 15 2 0 9 -7 16 -15z m-1424 -79 c12 -13 12 -17 -2 -30 -21 -22 -24
-20 -24 14 0 34 5 37 26 16z m82 -101 c-3 -3 -9 2 -12 12 -6 14 -5 15 5 6 7
-7 10 -15 7 -18z m1042 -122 c8 -8 -18 1 -57 21 -40 20 -73 38 -73 41 0 7 115
-47 130 -62z m-16 -35 c12 2 17 -1 11 -5 -5 -5 -13 -12 -16 -16 -3 -4 -19 8
-35 25 -19 22 -21 26 -5 13 13 -11 33 -19 45 -17z m-1444 -71 c0 -2 -16 -19
-37 -38 l-36 -34 28 38 c23 30 45 48 45 34z m473 -18 c5 -3 2 -9 -7 -12 -12
-5 -16 0 -16 15 0 12 3 17 8 12 4 -5 11 -12 15 -15z m1277 1 c0 -5 9 -19 20
-30 24 -24 26 -45 4 -36 -12 4 -15 2 -10 -9 7 -20 -3 -19 -26 2 -17 15 -18 15
-18 -10 0 -15 5 -27 10 -27 6 0 10 -10 10 -21 0 -17 -5 -20 -21 -16 -16 4 -18
3 -9 -8 12 -14 3 -118 -9 -110 -4 2 -13 -12 -20 -31 -7 -18 -17 -34 -22 -34
-5 0 -7 -11 -3 -25 4 -18 1 -27 -10 -31 -9 -3 -16 -12 -16 -20 0 -8 -6 -11
-17 -7 -9 4 -14 2 -10 -3 3 -6 2 -16 -3 -24 -6 -10 -14 -2 -29 31 -11 24 -22
52 -25 61 -3 12 -11 16 -23 12 -13 -4 -14 -3 -5 3 10 8 8 15 -8 36 -12 15 -19
31 -16 35 3 5 -5 20 -18 33 -27 30 -46 62 -46 81 0 7 9 -2 20 -19 14 -24 24
-31 37 -26 10 3 15 3 11 -2 -11 -11 11 -35 32 -35 10 0 23 -7 31 -16 11 -14
13 -14 22 1 7 13 12 14 23 4 12 -10 14 -7 12 12 -2 15 2 23 10 21 14 -2 13 33
-2 57 -7 10 -4 12 13 6 21 -6 25 4 24 52 0 7 8 15 18 18 20 7 34 39 24 55 -9
15 4 30 26 30 10 0 19 -4 19 -10z m-56 -36 c3 -8 2 -12 -4 -9 -6 3 -10 10 -10
16 0 14 7 11 14 -7z m-234 -8 c0 -11 -19 -15 -25 -6 -3 5 1 10 9 10 9 0 16 -2
16 -4z m-42 -64 c2 -7 -1 -12 -8 -12 -6 0 -8 5 -5 10 3 6 -1 10 -9 10 -8 0
-18 4 -21 10 -4 6 2 7 16 1 13 -4 25 -13 27 -19z m-976 -94 c-7 -7 -12 -8 -12
-2 0 14 12 26 19 19 2 -3 -1 -11 -7 -17z m49 -11 c-16 -16 -26 0 -10 19 9 11
15 12 17 4 2 -6 -1 -17 -7 -23z m2259 13 c0 -5 -7 -10 -15 -10 -8 0 -15 5 -15
10 0 6 7 10 15 10 8 0 15 -4 15 -10z m-2170 -4 c0 -3 -4 -8 -10 -11 -5 -3 -10
-1 -10 4 0 6 5 11 10 11 6 0 10 -2 10 -4z m995 -17 c11 -17 -1 -21 -15 -4 -8
9 -8 15 -2 15 6 0 14 -5 17 -11z m203 -13 c-7 -8 -15 -12 -17 -11 -5 6 10 25
20 25 5 0 4 -6 -3 -14z m-40 -43 c-11 -14 -10 -15 12 -8 23 7 24 7 10 -11 -29
-37 -40 -45 -51 -39 -7 5 -4 14 8 27 10 11 17 22 16 24 -8 12 -1 34 7 29 8 -5
7 -12 -2 -22z m-224 -80 c42 -35 59 -68 62 -115 l2 -38 -29 21 c-16 11 -29 27
-29 35 0 8 -9 35 -20 60 -32 70 -39 91 -32 99 4 4 8 -2 10 -14 2 -11 18 -33
36 -48z m216 -23 c0 -5 -9 -6 -20 -3 -20 5 -25 15 -13 26 7 8 33 -11 33 -23z
m840 -7 c-1 -33 -24 -68 -39 -58 -17 10 -13 43 7 64 24 27 32 25 32 -6z m-916
-139 c11 -4 13 -10 7 -18 -14 -16 2 -38 30 -41 37 -4 39 -4 39 -14 0 -15 -32
-22 -47 -10 -11 9 -17 8 -28 -7 -8 -10 -15 -22 -15 -25 0 -3 -11 -11 -24 -17
-19 -9 -25 -8 -30 4 -3 8 1 14 11 14 11 0 13 3 5 13 -7 8 -6 18 4 32 8 10 11
28 8 38 -4 11 0 23 7 28 17 11 14 10 33 3z m76 -153 c0 -4 -11 -6 -25 -3 -14
2 -25 6 -25 8 0 2 11 4 25 4 14 0 25 -4 25 -9z m-65 -10 c-9 -15 30 -31 80
-33 48 -2 59 -12 23 -21 -13 -4 -26 -1 -30 6 -6 9 -8 9 -8 0 0 -7 -7 -13 -16
-13 -10 0 -14 -6 -10 -15 7 -19 -64 -69 -78 -55 -16 16 -26 12 -19 -7 5 -13 2
-15 -18 -10 -13 4 -29 7 -36 7 -6 0 -19 7 -27 16 -15 14 -16 13 -16 -10 0 -16
8 -30 21 -37 12 -6 18 -14 13 -18 -5 -3 -9 -15 -8 -26 0 -29 -29 -54 -65 -53
-23 1 -31 6 -31 19 0 19 -17 35 -27 25 -4 -3 8 -24 26 -46 17 -22 28 -40 23
-40 -5 0 -15 7 -22 15 -7 8 -17 15 -22 15 -12 0 80 -89 96 -92 24 -4 57 14 52
28 -4 9 -1 12 5 9 6 -4 8 -13 5 -20 -2 -7 1 -18 7 -24 8 -8 8 -11 0 -11 -6 0
-14 5 -16 10 -3 6 -4 5 -3 -2 2 -7 13 -12 25 -11 26 3 28 -13 1 -20 -10 -3
-24 1 -31 9 -6 7 -24 12 -40 10 -16 -2 -26 1 -23 5 3 5 -2 6 -11 3 -9 -4 -14
-13 -10 -22 4 -12 3 -13 -9 -3 -8 7 -19 10 -24 7 -5 -3 -19 6 -30 19 -12 14
-26 25 -32 25 -18 0 -11 18 10 25 11 4 18 11 15 16 -4 5 -13 2 -22 -7 -15 -15
-18 -14 -34 7 l-18 24 3 -28 c4 -33 -9 -45 -17 -16 -3 12 -10 18 -16 15 -5 -4
-17 6 -25 21 -8 15 -15 23 -16 17 0 -16 60 -89 73 -89 7 0 11 -8 11 -17 -1
-10 3 -16 9 -15 6 1 13 -6 15 -15 2 -14 -1 -16 -14 -11 -12 4 -15 3 -10 -5 4
-7 4 -21 1 -33 -5 -16 -10 -18 -21 -8 -11 9 -14 8 -14 -5 0 -19 -11 -21 -27
-5 -8 8 -14 5 -22 -10 -7 -12 -18 -21 -26 -21 -9 0 -12 -6 -8 -17 9 -28 -11
-2 -25 30 -7 16 -8 26 -3 22 10 -5 27 32 23 49 -2 4 2 14 8 21 11 14 -1 58
-24 85 -17 19 -27 60 -15 60 5 0 15 -12 21 -27 14 -32 76 -107 65 -80 -4 10
-7 24 -7 31 0 7 -11 30 -25 50 -13 20 -21 36 -18 36 4 0 -2 7 -13 16 -18 14
-18 15 4 4 12 -6 22 -14 22 -19 0 -4 6 -8 14 -8 11 0 12 5 4 23 -6 13 -16 20
-24 17 -8 -3 -14 0 -14 5 0 6 10 12 23 14 16 2 21 9 19 26 -5 34 12 26 44 -20
22 -31 30 -37 32 -24 2 10 -3 26 -12 35 -9 10 -14 25 -10 35 8 22 24 20 24 -3
0 -10 7 -24 15 -31 9 -7 14 -19 11 -27 -3 -8 -2 -12 3 -9 4 3 13 -6 20 -21 6
-14 14 -23 17 -21 9 9 -17 62 -36 75 -11 8 -20 22 -20 31 1 14 5 12 21 -7 11
-13 22 -21 26 -18 3 4 0 13 -7 22 -7 8 -8 15 -2 15 5 0 13 -7 16 -16 3 -8 10
-13 15 -10 5 4 21 2 35 -4 35 -13 33 0 -4 25 -16 11 -30 26 -30 34 0 11 6 8
20 -7 12 -13 27 -19 36 -15 12 4 13 8 3 14 -7 4 -16 6 -20 4 -12 -8 -37 30
-37 57 0 26 1 26 21 7 32 -30 52 -21 25 11 -7 8 -1 5 13 -8 14 -12 32 -22 40
-22 8 0 23 -7 33 -15 23 -17 46 -20 46 -5 0 6 -6 10 -14 10 -7 0 -25 12 -41
26 -26 24 -26 26 -9 39 11 8 33 14 49 13 17 0 41 5 55 10 32 14 32 14 25 3z
m-1625 -73 c0 -6 -3 -8 -7 -5 -3 4 -12 2 -20 -4 -16 -14 -18 2 -1 19 12 12 28
7 28 -10z m1630 -182 c-13 -13 -35 7 -25 24 5 8 11 8 21 -1 10 -8 12 -15 4
-23z m-1233 -8 c-3 -8 -6 -5 -6 6 -1 11 2 17 5 13 3 -3 4 -12 1 -19z m233 -77
c-5 -10 -6 -22 -2 -26 4 -4 0 -6 -8 -3 -17 5 -20 39 -5 50 16 11 26 -2 15 -21z
m-254 -56 c-3 -8 -11 -15 -18 -14 -10 0 -10 2 0 6 6 2 12 14 13 26 0 12 3 16
6 9 3 -7 2 -19 -1 -27z m34 -30 c-7 -12 -10 -31 -8 -41 4 -21 -24 -57 -47 -60
-22 -3 -18 10 11 39 14 14 24 31 23 39 -3 20 23 75 28 60 3 -8 0 -24 -7 -37z
m34 20 c-4 -15 -2 -25 5 -25 6 0 11 5 11 11 0 14 25 39 39 39 6 0 11 -6 11
-14 0 -8 -6 -13 -12 -12 -7 0 -15 -3 -16 -9 -2 -5 -8 -15 -12 -20 -5 -6 -5
-17 0 -25 18 -27 10 -33 -11 -9 -17 20 -22 21 -30 9 -7 -10 -8 -3 -3 25 7 41
12 55 20 55 2 0 2 -11 -2 -25z m706 -17 c0 -6 -7 -5 -15 2 -8 7 -15 17 -15 22
0 6 7 5 15 -2 8 -7 15 -17 15 -22z m-810 3 c0 -6 -4 -13 -10 -16 -5 -3 -10
-13 -10 -22 0 -13 2 -13 16 -2 15 12 16 11 9 -11 -11 -37 -25 -50 -51 -50
l-23 0 28 49 c16 27 27 52 24 55 -4 3 -1 6 5 6 7 0 12 -4 12 -9z m288 -86 c0
-5 -5 -9 -11 -7 -5 2 -14 -3 -19 -10 -6 -9 -7 -6 -3 9 3 12 1 24 -4 27 -6 4
-8 13 -5 20 3 7 -2 19 -11 26 -13 11 -14 9 -9 -19 5 -22 3 -31 -6 -31 -9 0 -8
-5 3 -18 22 -24 22 -36 1 -28 -14 5 -16 1 -11 -29 6 -39 -9 -48 -22 -13 -5 15
-4 27 5 36 16 16 18 28 5 36 -5 3 -11 15 -14 27 -4 15 -2 19 9 15 11 -4 12 -2
4 14 -13 25 -13 28 8 32 17 4 81 -66 80 -87z m-706 -32 c-10 -16 -24 -37 -30
-48 -9 -16 -11 -17 -12 -3 0 15 45 78 57 78 2 0 -4 -12 -15 -27z m499 -5 c-4
-12 -15 -22 -24 -24 -21 -3 -21 1 -1 31 19 29 37 24 25 -7z m76 10 c-3 -8 -6
-5 -6 6 -1 11 2 17 5 13 3 -3 4 -12 1 -19z m269 -17 c-4 -6 -13 -11 -19 -10
-9 0 -9 2 0 5 7 3 9 13 6 22 -5 13 -3 14 7 5 7 -6 9 -16 6 -22z m64 14 c0 -8
-2 -15 -4 -15 -2 0 -6 7 -10 15 -3 8 -1 15 4 15 6 0 10 -7 10 -15z m170 -10
c20 -24 6 -28 -15 -5 -10 11 -13 20 -8 20 6 0 16 -7 23 -15z m-680 -10 c-7 -8
-18 -15 -24 -15 -6 0 -2 7 8 15 25 19 32 19 16 0z m291 6 c0 8 5 3 10 -11 6
-14 8 -40 5 -58 -3 -22 -1 -30 6 -26 6 4 8 3 5 -3 -4 -6 0 -16 8 -23 14 -12
12 -30 -4 -30 -14 0 -33 58 -26 80 7 21 -12 25 -28 5 -5 -6 -7 -3 -4 6 3 9 1
21 -5 27 -6 6 -8 18 -4 27 5 14 9 15 21 5 12 -10 15 -10 16 1z m209 -78 c13
-20 13 -25 -3 -40 -18 -17 -18 -17 -15 12 2 22 -2 30 -16 33 -15 3 -17 0 -12
-14 6 -16 5 -17 -6 -6 -11 11 -10 16 5 26 10 8 17 27 18 47 l1 34 7 -35 c4
-19 14 -45 21 -57z m50 77 c0 -5 -4 -10 -10 -10 -5 0 -10 5 -10 10 0 6 5 10
10 10 6 0 10 -4 10 -10z m-330 -77 c0 -2 -4 -3 -9 -3 -5 0 -14 14 -20 31 -17
50 -13 57 9 14 11 -22 20 -41 20 -42z m155 56 c24 -14 33 -25 27 -31 -11 -11
-57 17 -66 40 -7 16 -3 15 39 -9z m247 -29 c2 -23 -1 -39 -6 -37 -14 5 -27 57
-15 57 6 0 7 5 4 10 -3 6 -2 10 3 10 6 0 12 -18 14 -40z m66 -16 c-4 -3 -12 5
-18 18 -12 22 -12 22 6 6 10 -10 15 -20 12 -24z m-568 11 c0 -8 -4 -15 -10
-15 -5 0 -7 7 -4 15 4 8 8 15 10 15 2 0 4 -7 4 -15z m50 -15 c0 -5 -7 -7 -15
-4 -8 4 -12 10 -9 15 6 11 24 2 24 -11z m-111 -21 c-19 -11 -24 -3 -8 14 8 9
16 11 18 5 2 -6 -3 -14 -10 -19z m332 -9 c10 -6 19 -15 19 -21 0 -6 -5 -7 -11
-3 -8 4 -9 0 -4 -15 6 -21 -8 -30 -20 -11 -3 5 -11 7 -18 4 -9 -3 -13 5 -12
26 0 32 13 37 46 20z m69 -36 c0 -8 -4 -14 -9 -14 -11 0 -22 26 -14 34 9 9 23
-3 23 -20z m320 11 c7 -9 8 -15 2 -15 -5 0 -12 7 -16 15 -3 8 -4 15 -2 15 2 0
9 -7 16 -15z m-580 -15 c0 -11 -4 -20 -9 -20 -5 0 -7 9 -4 20 3 11 7 20 9 20
2 0 4 -9 4 -20z m80 -28 c0 -15 -2 -15 -10 -2 -13 20 -13 33 0 25 6 -3 10 -14
10 -23z m1069 8 c2 0 1 -6 -2 -14 -3 -8 1 -20 9 -26 23 -20 16 -30 -13 -19
-14 5 -32 8 -39 5 -14 -6 -89 22 -82 30 3 2 21 -3 41 -11 33 -14 53 -6 27 10
-5 3 -10 15 -10 25 0 16 4 17 32 9 18 -5 35 -9 37 -9z m-1229 -21 c0 -5 -4 -9
-10 -9 -5 0 -10 7 -10 16 0 8 5 12 10 9 6 -3 10 -10 10 -16z m990 0 c0 -6 -4
-7 -10 -4 -5 3 -10 11 -10 16 0 6 5 7 10 4 6 -3 10 -11 10 -16z m-886 -15 c9
-23 7 -31 -3 -15 -8 12 -13 11 -31 -10 l-21 -24 17 33 c20 36 29 40 38 16z
m266 -4 c0 -5 -5 -10 -11 -10 -5 0 -7 5 -4 10 3 6 8 10 11 10 2 0 4 -4 4 -10z
m-429 -23 c-10 -9 -11 -8 -5 6 3 10 9 15 12 12 3 -3 0 -11 -7 -18z m355 -4
c-7 -7 -26 7 -26 19 0 6 6 6 15 -2 9 -7 13 -15 11 -17z m64 -3 c18 -12 2 -12
-25 0 -13 6 -15 9 -5 9 8 0 22 -4 30 -9z m705 -8 c-3 -3 -11 0 -18 7 -9 10 -8
11 6 5 10 -3 15 -9 12 -12z m245 -2 c0 -5 -4 -10 -10 -10 -5 0 -10 5 -10 10 0
6 5 10 10 10 6 0 10 -4 10 -10z m-1375 -10 c3 -6 -1 -7 -9 -4 -18 7 -21 14 -7
14 6 0 13 -4 16 -10z m415 -29 c0 -4 -6 -8 -14 -8 -8 0 -12 6 -9 14 5 13 23 9
23 -6z"/>
<path d="M2090 4261 c0 -5 7 -11 15 -15 8 -3 15 -1 15 4 0 6 5 10 10 10 6 0
10 -6 10 -14 0 -8 6 -16 14 -19 11 -4 11 -1 2 19 -8 17 -19 24 -38 24 -16 0
-28 -4 -28 -9z"/>
<path d="M2290 4006 c0 -2 7 -7 16 -10 8 -3 12 -2 9 4 -6 10 -25 14 -25 6z"/>
<path d="M3574 3935 c-19 -14 -19 -14 2 -15 12 0 24 7 28 15 7 19 -5 19 -30 0z"/>
<path d="M3620 3606 c0 -2 11 -6 25 -8 14 -3 25 -1 25 3 0 5 -11 9 -25 9 -14
0 -25 -2 -25 -4z"/>
<path d="M2928 3188 c2 -10 6 -18 7 -18 1 0 5 8 7 18 3 11 0 19 -7 19 -7 0
-10 -8 -7 -19z"/>
<path d="M2460 2990 c0 -5 7 -10 15 -10 8 0 15 5 15 10 0 6 -7 10 -15 10 -8 0
-15 -4 -15 -10z"/>
<path d="M2566 2641 c-11 -12 -16 -24 -13 -27 8 -9 39 24 35 37 -2 6 -12 1
-22 -10z"/>
<path d="M3520 2539 c0 -5 5 -7 10 -4 6 3 10 8 10 11 0 2 -4 4 -10 4 -5 0 -10
-5 -10 -11z"/>
<path d="M3380 2490 c0 -5 5 -10 10 -10 6 0 10 5 10 10 0 6 -4 10 -10 10 -5 0
-10 -4 -10 -10z"/>
<path d="M3490 2450 c0 -5 5 -10 11 -10 5 0 7 5 4 10 -3 6 -8 10 -11 10 -2 0
-4 -4 -4 -10z"/>
<path d="M3416 2357 c-16 -12 -16 -13 3 -14 12 -1 21 4 21 13 0 17 -2 17 -24
1z"/>
<path d="M3625 2201 c-6 -11 9 -23 19 -14 9 9 7 23 -3 23 -6 0 -12 -4 -16 -9z"/>
<path d="M3506 2022 c-2 -4 0 -14 5 -22 8 -13 10 -13 18 0 10 15 6 30 -9 30
-5 0 -11 -4 -14 -8z"/>
<path d="M3530 1965 c0 -8 7 -15 15 -15 8 0 15 4 15 9 0 5 -7 11 -15 15 -9 3
-15 0 -15 -9z"/>
<path d="M3522 1893 c-19 -8 -4 -22 18 -16 11 3 17 9 14 14 -6 10 -12 10 -32
2z"/>
<path d="M3860 1396 c0 -2 8 -10 18 -17 15 -13 16 -12 3 4 -13 16 -21 21 -21
13z"/>
<path d="M3812 1324 c10 -10 20 -15 24 -12 3 4 -5 12 -18 18 -22 12 -22 12 -6
-6z"/>
<path d="M3724 1283 c4 -7 3 -13 -3 -13 -7 0 -7 -8 1 -25 6 -14 14 -25 18 -25
11 0 3 51 -11 64 -9 8 -10 8 -5 -1z"/>
<path d="M3776 1257 c3 -10 9 -15 12 -12 3 3 0 11 -7 18 -10 9 -11 8 -5 -6z"/>
<path d="M3810 841 c0 -13 26 -32 33 -24 8 7 -11 33 -24 33 -5 0 -9 -4 -9 -9z"/>
<path d="M3681 671 c-8 -5 -9 -11 -3 -15 5 -3 12 1 16 9 6 17 6 18 -13 6z"/>
<path d="M3416 442 c-3 -6 -1 -14 5 -17 15 -10 25 3 12 16 -7 7 -13 7 -17 1z"/>
<path d="M3500 412 c6 -13 14 -21 18 -18 3 4 -2 14 -12 24 -18 16 -18 16 -6
-6z"/>
<path d="M3400 360 c0 -5 5 -10 11 -10 5 0 7 5 4 10 -3 6 -8 10 -11 10 -2 0
-4 -4 -4 -10z"/>
<path d="M2520 365 c-7 -9 -8 -15 -2 -15 5 0 12 7 16 15 3 8 4 15 2 15 -2 0
-9 -7 -16 -15z"/>
<path d="M1840 4915 c0 -8 4 -15 10 -15 5 0 7 7 4 15 -4 8 -8 15 -10 15 -2 0
-4 -7 -4 -15z"/>
<path d="M2248 4365 c6 -11 17 -29 26 -40 15 -20 15 -20 10 2 -4 12 -15 30
-26 40 -20 18 -21 17 -10 -2z"/>
<path d="M2297 4286 c4 -13 3 -17 -5 -12 -7 4 -12 3 -12 -3 0 -15 21 -24 31
-14 5 5 3 17 -6 29 -15 18 -15 18 -8 0z"/>
<path d="M2330 4230 c6 -11 13 -20 16 -20 2 0 0 9 -6 20 -6 11 -13 20 -16 20
-2 0 0 -9 6 -20z"/>
<path d="M543 3897 c-16 -34 -16 -86 -3 -157 8 -40 7 -64 -5 -102 -15 -53 -7
-188 15 -229 6 -11 9 -27 6 -35 -3 -8 -1 -14 5 -14 6 0 9 -6 6 -14 -3 -8 1
-17 9 -20 21 -8 17 -21 -11 -34 -17 -8 -25 -20 -25 -37 0 -15 -5 -36 -11 -47
-8 -15 -8 -19 1 -13 8 5 9 -3 4 -32 -4 -21 -8 -49 -9 -63 -1 -14 -4 -32 -7
-40 -16 -35 -29 -135 -24 -166 6 -30 9 -32 25 -22 12 7 24 34 32 71 11 55 14
58 26 41 14 -18 15 -18 34 5 10 13 22 41 25 62 4 21 13 40 20 43 8 3 14 13 14
21 0 12 6 15 20 10 22 -7 23 -5 24 88 1 42 6 62 17 71 14 10 16 29 14 115 -2
76 1 113 13 140 8 20 16 65 17 100 2 54 -1 64 -17 69 -10 2 -18 11 -18 18 0 8
-4 14 -9 14 -5 0 -11 12 -13 27 -2 17 -13 32 -33 43 -16 9 -34 26 -40 38 -5
12 -13 22 -17 22 -12 0 -10 -38 2 -45 13 -8 13 -55 1 -55 -17 0 -51 57 -51 84
0 14 -4 26 -9 26 -5 0 -11 10 -13 22 -3 21 -4 21 -15 -5z m94 -429 c-3 -7 -5
-2 -5 12 0 14 2 19 5 13 2 -7 2 -19 0 -25z m-26 -51 c-8 -8 -11 -7 -11 4 0 20
13 34 18 19 3 -7 -1 -17 -7 -23z"/>
<path d="M436 2623 c-3 -3 -6 -14 -6 -23 0 -9 -7 -31 -16 -49 -9 -18 -14 -35
-11 -38 8 -7 67 7 67 17 0 5 9 11 19 15 21 6 34 44 25 69 -7 18 -34 22 -34 6
0 -7 -6 -7 -19 -1 -10 6 -21 7 -25 4z"/>
<path d="M2143 2486 c9 -18 18 -24 37 -21 34 4 34 3 21 19 -7 8 -21 12 -31 9
-11 -3 -20 0 -20 6 0 6 -4 11 -9 11 -5 0 -4 -11 2 -24z"/>
<path d="M2110 2300 c0 -13 5 -18 15 -14 8 4 15 12 15 20 0 8 -7 14 -15 14 -8
0 -15 -9 -15 -20z"/>
<path d="M2125 2251 c-16 -4 -28 -11 -26 -16 9 -19 47 -43 67 -42 10 1 18 -4
17 -10 -2 -7 6 -13 17 -13 17 0 19 4 12 16 -5 9 -7 26 -4 37 3 14 1 18 -7 13
-6 -4 -9 -12 -6 -17 4 -5 -1 -9 -10 -9 -9 0 -14 4 -11 9 11 18 -19 38 -49 32z"/>
<path d="M2221 2226 c11 -9 69 -15 64 -6 -3 6 -20 10 -37 10 -17 0 -29 -2 -27
-4z"/>
<path d="M2073 2213 c4 -3 3 -11 -3 -17 -8 -10 -19 -96 -24 -178 -1 -15 -10
-34 -20 -41 -14 -10 -16 -16 -7 -21 9 -6 9 -11 1 -21 -7 -8 -9 -18 -6 -23 3
-4 -1 -25 -8 -46 -10 -28 -11 -49 -3 -75 18 -67 18 -68 28 -42 6 16 6 28 -1
35 -7 7 -3 18 13 35 12 13 16 21 8 16 -12 -7 -13 1 -8 44 4 29 12 59 18 67 9
11 9 14 -1 14 -10 0 -10 3 0 15 6 8 9 19 5 25 -4 7 2 14 14 17 24 6 29 23 7
23 -12 0 -12 5 -3 30 6 17 18 30 25 30 12 0 12 3 1 16 -11 13 -10 17 4 25 9 6
16 20 15 34 -1 13 -5 22 -9 19 -4 -2 -14 3 -22 11 -9 8 -19 15 -23 15 -4 0 -4
-3 -1 -7z"/>
<path d="M3430 2090 c-9 -6 -10 -10 -3 -10 6 0 15 5 18 10 8 12 4 12 -15 0z"/>
<path d="M2312 2065 c3 -4 -3 -16 -13 -26 -11 -11 -18 -26 -16 -32 2 -7 -2
-18 -9 -25 -8 -7 -13 -29 -12 -48 1 -21 -4 -39 -13 -45 -10 -6 -6 -9 15 -9 21
0 27 4 23 15 -4 8 -2 17 3 20 6 4 10 -3 10 -14 0 -37 27 -35 48 4 12 24 -1 55
-24 55 -12 0 -11 5 6 27 13 17 17 30 11 36 -5 5 -7 15 -5 22 3 7 -3 15 -13 19
-9 4 -15 4 -11 1z m18 -66 c0 -14 -17 -10 -23 5 -4 10 -1 13 9 9 7 -3 14 -9
14 -14z"/>
<path d="M2255 2030 c4 -6 11 -8 16 -5 14 9 11 15 -7 15 -8 0 -12 -5 -9 -10z"/>
<path d="M2175 2017 c-16 -9 -20 -23 -20 -62 0 -45 2 -50 23 -53 20 -3 23 0
17 17 -3 12 -2 21 3 21 6 0 7 14 2 37 -5 20 -7 41 -4 45 7 11 3 10 -21 -5z"/>
<path d="M3980 1992 c0 -5 7 -9 15 -9 8 0 12 4 9 9 -3 4 -9 8 -15 8 -5 0 -9
-4 -9 -8z"/>
<path d="M3980 1946 c0 -2 7 -6 15 -10 8 -3 15 -1 15 4 0 6 -7 10 -15 10 -8 0
-15 -2 -15 -4z"/>
<path d="M2377 1908 c-7 -26 2 -48 19 -48 9 0 14 11 14 29 0 34 -26 49 -33 19z"/>
<path d="M1965 1890 c-10 -11 -14 -20 -8 -20 5 0 18 9 28 20 10 11 14 20 8 20
-5 0 -18 -9 -28 -20z"/>
<path d="M2099 1863 c-1 -5 -1 -11 0 -15 0 -4 -6 -5 -14 -2 -11 5 -13 2 -9
-10 8 -22 17 -20 44 9 l23 25 -21 0 c-12 0 -23 -3 -23 -7z"/>
<path d="M3193 1854 c10 -17 -31 -24 -102 -18 -50 4 -66 2 -82 -11 -10 -10
-25 -15 -33 -12 -8 3 -26 -5 -41 -19 -14 -13 -35 -24 -45 -24 -14 0 -19 -6
-17 -20 2 -11 6 -22 9 -25 8 -9 90 25 115 47 20 18 22 19 31 2 8 -14 14 -15
42 -5 43 15 55 14 41 -2 -9 -11 0 -12 51 -2 34 6 63 16 66 23 2 7 13 12 25 12
22 1 22 1 2 12 -11 6 -22 14 -25 17 -12 14 -43 35 -37 25z"/>
<path d="M2164 1835 c-53 -17 -96 -44 -88 -57 4 -5 13 -4 22 5 10 7 33 20 52
29 76 32 84 37 70 36 -8 0 -34 -6 -56 -13z"/>
<path d="M3690 1836 c0 -2 7 -7 16 -10 8 -3 12 -2 9 4 -6 10 -25 14 -25 6z"/>
<path d="M3325 1815 c50 -18 74 -20 58 -4 -7 7 -31 13 -55 15 l-43 4 40 -15z"/>
<path d="M2166 1802 c-3 -5 1 -9 9 -9 8 0 15 4 15 9 0 4 -4 8 -9 8 -6 0 -12
-4 -15 -8z"/>
<path d="M2326 1784 c-4 -10 -13 -13 -26 -9 -17 5 -20 2 -20 -22 1 -24 3 -26
13 -13 14 18 72 19 105 1 19 -10 23 -9 28 4 4 9 -1 21 -12 29 -16 12 -20 12
-30 -2 -10 -14 -13 -13 -23 6 -14 26 -27 28 -35 6z"/>
<path d="M2153 1732 c-47 -30 -52 -38 -25 -45 17 -4 81 28 94 47 25 35 -14 34
-69 -2z"/>
<path d="M2440 1736 c0 -8 5 -18 10 -21 6 -3 10 1 10 9 0 8 -4 18 -10 21 -5 3
-10 -1 -10 -9z"/>
<path d="M2991 1684 c-12 -8 -26 -12 -33 -8 -7 5 -8 3 -3 -6 6 -10 4 -12 -10
-6 -18 7 -35 -7 -35 -30 0 -17 40 -25 46 -10 3 8 16 11 34 8 17 -2 30 0 30 4
0 5 9 15 20 21 15 10 18 10 14 0 -5 -14 -1 -15 51 -20 20 -1 29 2 28 11 -4 16
16 15 46 -2 20 -11 27 -11 38 -1 19 20 17 22 -23 23 -20 1 -42 6 -49 12 -6 5
-15 7 -18 3 -4 -3 -13 0 -22 7 -12 10 -18 10 -30 0 -12 -10 -22 -10 -39 -2
-18 8 -29 7 -45 -4z"/>
<path d="M3282 1685 c7 -7 24 -16 38 -20 22 -7 23 -6 12 7 -7 9 -24 18 -38 21
-21 4 -23 2 -12 -8z"/>
<path d="M2300 1646 c-15 -15 -12 -29 5 -22 8 3 15 0 15 -7 0 -8 3 -8 9 2 6
10 10 10 16 1 4 -6 22 -10 40 -8 19 1 37 -1 41 -5 15 -15 24 -6 14 13 -8 15
-17 19 -31 15 -12 -4 -21 -1 -25 8 -6 17 -68 19 -84 3z"/>
<path d="M2848 1619 c-18 -10 -25 -49 -9 -49 14 0 33 28 29 44 -2 11 -7 12
-20 5z"/>
<path d="M3266 1608 c3 -5 8 -7 10 -5 4 4 16 -5 89 -69 l30 -26 -30 22 c-19
14 -31 17 -33 10 -4 -11 0 -15 76 -70 48 -36 53 -35 16 5 -19 21 -22 30 -13
36 10 6 10 11 0 23 -11 13 -11 16 0 16 8 0 -10 14 -39 30 -54 30 -117 47 -106
28z"/>
<path d="M2474 1594 c9 -8 16 -20 16 -25 0 -6 4 -8 9 -5 17 11 5 39 -18 43
-21 3 -21 2 -7 -13z"/>
<path d="M2209 1533 c-13 -17 -13 -17 6 -3 11 8 22 16 24 17 2 2 0 3 -6 3 -6
0 -17 -8 -24 -17z"/>
<path d="M2507 1543 c-4 -3 -7 -11 -7 -17 0 -6 5 -5 12 2 6 6 9 14 7 17 -3 3
-9 2 -12 -2z"/>
<path d="M2250 1505 c-16 -19 0 -19 26 0 16 12 16 14 3 15 -9 0 -22 -7 -29
-15z"/>
<path d="M4886 1493 c-6 -14 -5 -15 5 -6 7 7 10 15 7 18 -3 3 -9 -2 -12 -12z"/>
<path d="M3344 1490 c5 -8 16 -23 25 -33 14 -17 14 -20 -3 -33 -19 -13 -19
-14 -1 -34 10 -11 25 -20 34 -19 10 0 12 2 4 6 -20 7 -15 20 10 28 13 4 17 8
9 12 -6 2 -10 8 -7 13 3 5 -14 23 -37 42 -23 18 -38 26 -34 18z"/>
<path d="M3315 1470 c3 -5 11 -10 16 -10 6 0 7 5 4 10 -3 6 -11 10 -16 10 -6
0 -7 -4 -4 -10z"/>
<path d="M2215 1432 c-19 -14 -37 -42 -27 -42 5 0 17 11 26 25 17 26 17 29 1
17z"/>
<path d="M4850 1404 c-14 -7 -29 -15 -35 -17 -5 -3 -7 -7 -4 -11 8 -8 69 23
69 35 0 5 -1 9 -2 8 -2 -1 -14 -7 -28 -15z"/>
<path d="M3320 1381 c0 -13 26 -32 33 -24 8 7 -11 33 -24 33 -5 0 -9 -4 -9 -9z"/>
<path d="M2206 1343 c-6 -14 -5 -15 5 -6 7 7 10 15 7 18 -3 3 -9 -2 -12 -12z"/>
<path d="M2232 1343 c3 -18 22 -43 33 -43 3 0 2 8 -3 18 -5 9 -7 23 -5 30 3 6
-3 12 -12 12 -10 0 -15 -7 -13 -17z"/>
<path d="M3000 1341 c0 -5 5 -13 10 -16 6 -3 10 -2 10 4 0 5 -4 13 -10 16 -5
3 -10 2 -10 -4z"/>
<path d="M2956 1275 c4 -8 8 -15 10 -15 2 0 4 7 4 15 0 8 -4 15 -10 15 -5 0
-7 -7 -4 -15z"/>
<path d="M2155 1260 c-3 -5 -2 -10 4 -10 5 0 13 5 16 10 3 6 2 10 -4 10 -5 0
-13 -4 -16 -10z"/>
<path d="M2555 1240 c-3 -5 -1 -10 4 -10 6 0 11 5 11 10 0 6 -2 10 -4 10 -3 0
-8 -4 -11 -10z"/>
<path d="M4049 1192 c-26 -22 -20 -52 11 -52 11 0 20 -7 20 -15 0 -9 9 -15 23
-15 12 0 18 4 12 8 -5 4 -11 21 -13 37 -6 61 -15 67 -53 37z"/>
<path d="M1860 1190 c0 -5 5 -10 11 -10 5 0 7 5 4 10 -3 6 -8 10 -11 10 -2 0
-4 -4 -4 -10z"/>
<path d="M2107 1183 c-4 -3 -7 -11 -7 -17 0 -6 5 -5 12 2 6 6 9 14 7 17 -3 3
-9 2 -12 -2z"/>
<path d="M2175 1118 c-26 -15 -49 -38 -43 -43 2 -3 20 9 39 25 36 31 37 37 4
18z"/>
<path d="M1916 1061 c-8 -12 18 -21 33 -11 10 5 8 9 -4 14 -21 8 -23 8 -29 -3z"/>
<path d="M225 1041 c-22 -8 -43 -19 -46 -24 -4 -5 -12 -6 -18 -2 -7 4 -18 2
-26 -5 -8 -7 -15 -7 -19 -1 -4 5 -17 -1 -32 -14 -27 -25 -54 -24 -54 2 0 13
-3 13 -15 3 -10 -8 -15 -30 -15 -61 0 -48 12 -64 24 -33 4 11 14 15 32 11 18
-3 33 2 49 19 13 13 20 24 15 24 -6 0 -10 5 -10 10 0 15 44 12 66 -5 10 -8 27
-15 38 -15 15 0 17 -5 12 -27 -3 -16 -3 -22 0 -15 10 22 24 2 24 -34 0 -19 4
-33 9 -30 16 10 41 -5 41 -25 0 -10 4 -19 10 -19 5 0 7 -6 4 -13 -2 -7 7 -26
20 -42 22 -25 26 -27 32 -12 3 9 10 17 15 17 6 0 19 9 30 19 l21 19 -21 7
c-13 4 -20 13 -19 23 2 12 -4 17 -20 16 -15 0 -21 4 -18 13 3 8 0 16 -7 18 -7
3 -12 24 -11 53 0 28 -5 54 -14 64 -12 14 -12 20 -2 33 11 13 9 15 -13 15 -14
0 -30 6 -34 13 -7 11 -15 11 -48 -2z"/>
<path d="M403 1050 c-24 -10 -47 -45 -38 -59 3 -5 -1 -11 -7 -14 -7 -2 -10 -8
-6 -11 3 -4 16 2 27 13 26 26 56 27 78 2 24 -29 53 -11 53 34 0 37 -17 56 -31
34 -6 -11 -11 -11 -21 -1 -14 14 -24 14 -55 2z"/>
<path d="M1956 1014 c-10 -26 -7 -44 8 -44 7 0 16 8 18 18 9 35 -14 59 -26 26z"/>
<path d="M3065 990 c3 -5 10 -10 16 -10 5 0 9 5 9 10 0 6 -7 10 -16 10 -8 0
-12 -4 -9 -10z"/>
<path d="M3010 921 c0 -32 11 -51 30 -51 9 0 22 -10 28 -22 8 -18 11 -19 11
-5 1 9 8 17 16 17 9 0 15 9 15 25 0 15 -6 25 -14 25 -8 0 -17 8 -20 17 -6 14
-9 15 -15 4 -7 -10 -13 -11 -30 -2 -18 10 -21 9 -21 -8z"/>
<path d="M2731 865 c-11 -14 -29 -83 -35 -130 l-5 -40 27 33 c15 18 32 32 39
32 7 0 17 9 23 20 6 11 8 20 4 20 -3 0 -1 7 6 15 20 24 5 60 -25 60 -15 0 -30
-4 -34 -10z"/>
<path d="M2991 864 c0 -11 3 -14 6 -6 3 7 2 16 -1 19 -3 4 -6 -2 -5 -13z"/>
<path d="M1820 823 c-20 -75 -62 -270 -75 -354 -18 -117 -50 -248 -69 -284 -9
-16 -16 -39 -16 -50 0 -22 -23 -91 -33 -101 -4 -4 -7 -13 -7 -21 0 -10 21 -13
88 -13 48 0 82 4 75 8 -13 8 -34 124 -29 162 2 14 4 31 5 38 0 7 6 10 11 7 6
-4 8 -11 4 -16 -3 -5 0 -16 6 -24 7 -8 10 -24 7 -35 -3 -11 -1 -20 4 -20 5 0
7 -20 4 -45 -2 -27 0 -43 6 -40 5 4 9 -3 9 -14 0 -19 6 -21 52 -21 28 0 49 3
45 6 -3 4 1 20 9 36 10 19 11 27 4 23 -9 -5 -10 -1 -5 14 4 13 2 21 -5 21 -7
0 -10 8 -7 20 4 16 0 20 -18 20 l-23 0 18 38 c12 24 15 41 9 49 -7 7 -6 14 1
18 5 3 10 11 10 16 0 6 -4 8 -8 5 -5 -3 -9 11 -10 31 -1 19 -4 44 -7 53 -3 10
-1 21 4 24 15 10 0 38 -16 31 -12 -4 -14 0 -9 20 4 14 2 25 -4 25 -6 0 -8 27
-5 70 2 40 0 72 -6 75 -5 4 -7 11 -3 16 10 17 11 93 1 107 -6 8 -6 12 2 12 6
0 11 8 11 18 0 14 -2 15 -10 2 -5 -8 -13 -11 -17 -6 -4 4 0 13 9 20 14 10 17
32 8 56 -1 3 -2 13 -1 23 4 30 -8 18 -19 -20z m-50 -567 c0 -3 -4 -8 -10 -11
-5 -3 -10 -1 -10 4 0 6 5 11 10 11 6 0 10 -2 10 -4z"/>
<path d="M4796 804 c-11 -28 -7 -30 44 -30 33 1 50 5 50 14 0 6 5 12 10 12 6
0 10 5 10 10 0 6 -24 10 -54 10 -40 0 -55 -4 -60 -16z"/>
<path d="M2796 799 c2 -4 0 -26 -5 -48 -10 -46 -5 -54 9 -16 20 54 22 72 6 72
-8 0 -13 -4 -10 -8z"/>
<path d="M2980 725 c0 -8 4 -15 10 -15 5 0 7 7 4 15 -4 8 -8 15 -10 15 -2 0
-4 -7 -4 -15z"/>
<path d="M2157 712 c-10 -10 -14 -22 -10 -25 3 -4 13 2 21 14 18 26 10 35 -11
11z"/>
<path d="M5101 680 c-5 -16 -15 -30 -21 -30 -6 0 -16 -13 -21 -30 -6 -16 -15
-30 -19 -30 -4 0 -11 -11 -14 -24 -3 -14 -18 -38 -32 -55 -16 -20 -21 -31 -12
-31 8 -1 7 -4 -4 -11 -10 -5 -18 -17 -18 -26 0 -9 -17 -34 -38 -57 -20 -22
-49 -57 -64 -76 -25 -32 -30 -34 -48 -22 -19 12 -27 7 -85 -53 -35 -36 -68
-65 -73 -65 -4 0 -19 -10 -32 -22 -31 -29 -88 -68 -99 -68 -5 0 -35 -12 -67
-27 -33 -15 -84 -32 -114 -39 -46 -10 11 -12 363 -13 l417 -1 0 355 c0 195 -2
355 -4 355 -2 0 -9 -13 -15 -30z"/>
<path d="M2851 690 c0 -8 4 -24 9 -35 l9 -20 0 20 c0 11 -4 27 -9 35 -9 13
-10 13 -9 0z"/>
<path d="M2996 663 c9 -51 14 -54 14 -10 0 20 -5 39 -11 42 -7 5 -8 -5 -3 -32z"/>
<path d="M2766 675 c-3 -8 -1 -15 4 -15 6 0 10 7 10 15 0 8 -2 15 -4 15 -2 0
-6 -7 -10 -15z"/>
<path d="M2294 644 c-16 -38 -15 -47 2 -36 11 7 27 72 18 72 -3 0 -12 -16 -20
-36z"/>
<path d="M2016 658 c3 -4 0 -8 -5 -8 -6 0 -11 -5 -11 -11 0 -6 10 -9 22 -7 29
4 36 34 9 34 -11 0 -17 -4 -15 -8z"/>
<path d="M2690 656 c0 -8 4 -17 9 -20 5 -4 7 3 4 14 -6 23 -13 26 -13 6z"/>
<path d="M2953 618 c-17 -33 -19 -45 -10 -65 l11 -25 19 23 c10 13 14 25 9 27
-6 2 -7 17 -2 38 11 49 -3 50 -27 2z"/>
<path d="M2765 640 c-3 -5 -2 -10 4 -10 5 0 13 5 16 10 3 6 2 10 -4 10 -5 0
-13 -4 -16 -10z"/>
<path d="M2533 633 c-8 -3 -10 -15 -6 -34 4 -22 2 -29 -10 -29 -8 0 -17 -7
-21 -15 -3 -8 -1 -15 3 -15 5 0 11 5 13 11 2 7 11 5 23 -7 18 -18 18 -18 13
23 -4 27 -2 44 6 46 7 3 8 8 1 15 -5 5 -15 7 -22 5z"/>
<path d="M1949 614 c-10 -13 -10 -24 0 -62 7 -26 18 -54 25 -62 7 -8 11 -21 9
-27 -3 -7 0 -13 5 -13 6 0 14 9 17 20 3 11 11 20 17 20 7 0 7 4 0 13 -10 12
-3 30 37 98 7 13 -2 7 -20 -14 -25 -27 -38 -35 -48 -28 -12 8 -13 12 -1 25 7
9 11 18 9 19 -2 1 -11 8 -20 15 -13 10 -19 9 -30 -4z"/>
<path d="M2087 623 c-4 -3 -7 -11 -7 -17 0 -6 5 -5 12 2 6 6 9 14 7 17 -3 3
-9 2 -12 -2z"/>
<path d="M2891 584 c-13 -29 -6 -48 9 -24 8 13 10 12 10 -2 0 -9 5 -20 12 -24
8 -5 9 2 4 27 -9 47 -20 54 -35 23z"/>
<path d="M3007 569 c-4 -13 -4 -25 -2 -28 3 -2 5 1 5 8 0 7 5 9 10 6 12 -8 13
5 1 23 -6 10 -10 8 -14 -9z"/>
<path d="M2457 573 c-4 -3 -7 -20 -7 -36 0 -37 10 -30 16 12 5 31 3 37 -9 24z"/>
<path d="M2065 549 c-11 -17 1 -21 15 -4 8 9 8 15 2 15 -6 0 -14 -5 -17 -11z"/>
<path d="M3202 495 c0 -16 2 -22 5 -12 2 9 2 23 0 30 -3 6 -5 -1 -5 -18z"/>
<path d="M2977 503 c-4 -3 -7 -11 -7 -17 0 -6 5 -5 12 2 6 6 9 14 7 17 -3 3
-9 2 -12 -2z"/>
<path d="M2883 488 c-13 -18 -14 -56 -1 -64 7 -5 9 -1 5 9 -4 11 1 18 16 23
24 7 38 24 31 36 -8 12 -40 9 -51 -4z"/>
<path d="M2405 480 c-3 -5 -1 -10 4 -10 6 0 11 5 11 10 0 6 -2 10 -4 10 -3 0
-8 -4 -11 -10z"/>
<path d="M3006 482 c-7 -12 20 -49 29 -40 4 4 0 16 -8 28 -8 12 -17 17 -21 12z"/>
<path d="M3102 444 c-15 -31 -4 -57 18 -44 12 8 13 13 2 30 -7 12 -8 20 -2 20
5 0 10 5 10 10 0 19 -17 10 -28 -16z"/>
<path d="M3037 423 c-3 -5 -1 -17 4 -28 8 -22 9 -21 13 13 3 21 -8 30 -17 15z"/>
<path d="M4082 323 l-44 -15 33 -34 c18 -19 42 -34 54 -34 11 0 26 -9 33 -20
7 -11 17 -20 22 -20 11 0 9 28 -3 46 -4 7 0 14 8 18 13 5 12 10 -3 38 -22 38
-41 43 -100 21z"/>
<path d="M2170 310 c-9 -6 -10 -10 -3 -10 6 0 15 5 18 10 8 12 4 12 -15 0z"/>
<path d="M2319 243 c-13 -16 -12 -17 4 -4 16 13 21 21 13 21 -2 0 -10 -8 -17
-17z"/>
<path d="M4110 205 c7 -8 20 -15 29 -15 13 1 13 3 -3 15 -26 19 -42 19 -26 0z"/>
<path d="M2102 175 c-23 -22 -23 -22 -3 -28 12 -3 24 -1 27 4 3 5 0 9 -7 9 -8
0 -8 4 1 15 20 25 7 25 -18 0z"/>
<path d="M3995 180 c3 -5 10 -10 16 -10 5 0 9 5 9 10 0 6 -7 10 -16 10 -8 0
-12 -4 -9 -10z"/>
<path d="M2218 163 c-10 -10 -27 -27 -39 -38 -18 -17 -21 -17 -16 -3 8 23 -20
12 -33 -13 -16 -28 -12 -30 23 -9 17 11 39 23 48 26 9 3 22 17 28 30 13 29 11
30 -11 7z"/>
<path d="M4137 173 c-3 -5 1 -14 9 -21 12 -11 14 -9 14 8 0 20 -14 27 -23 13z"/>
<path d="M2416 124 c-15 -14 -26 -27 -24 -29 2 -3 17 9 33 25 35 36 30 39 -9
4z"/>
<path d="M2360 125 c-7 -8 -16 -13 -20 -10 -4 3 -14 -3 -21 -13 -13 -15 -12
-16 4 -3 30 24 21 -30 -10 -56 -14 -13 -22 -23 -16 -23 5 0 18 9 28 20 10 11
24 20 31 20 7 0 11 6 8 14 -3 8 2 26 11 40 18 28 6 36 -15 11z"/>
<path d="M2426 88 c-21 -20 -35 -41 -32 -47 4 -5 -2 -14 -11 -20 -10 -5 -15
-13 -10 -17 4 -4 15 0 25 9 10 10 21 14 24 11 3 -3 9 -1 13 5 3 6 -2 11 -12
11 -16 1 -16 2 -3 13 16 13 54 68 48 70 -2 1 -20 -15 -42 -35z"/>
<path d="M4025 100 c3 -5 8 -10 11 -10 2 0 4 5 4 10 0 6 -5 10 -11 10 -5 0 -7
-4 -4 -10z"/>
<path d="M2188 78 c-13 -11 -32 -48 -25 -48 2 0 13 14 25 30 24 33 24 37 0 18z"/>
<path d="M2257 83 c-18 -3 -31 -13 -38 -29 -15 -42 -11 -50 26 -51 19 -1 35 3
35 8 0 4 -7 6 -15 3 -19 -8 -19 1 1 31 9 14 20 22 25 19 5 -3 6 2 3 10 -3 9
-7 15 -8 15 0 -1 -14 -4 -29 -6z"/>
<path d="M2470 35 c-20 -11 -21 -14 -7 -15 11 0 15 -4 11 -12 -4 -7 -3 -8 4
-4 15 9 35 46 25 46 -4 -1 -19 -7 -33 -15z"/>
</g>
</svg>
